<?xml version="1.0" encoding="UTF-8" standalone="no"?>
<!DOCTYPE svg PUBLIC "-//W3C//DTD SVG 1.1//EN" "http://www.w3.org/Graphics/SVG/1.1/DTD/svg11.dtd">
<svg width="100%" height="100%" viewBox="0 0 2316 1837" version="1.1" xmlns="http://www.w3.org/2000/svg" xmlns:xlink="http://www.w3.org/1999/xlink" xml:space="preserve" xmlns:serif="http://www.serif.com/" style="fill-rule:evenodd;clip-rule:evenodd;stroke-linejoin:round;stroke-miterlimit:2;">
    <g transform="matrix(1,0,0,1,-8898.4,-5990.74)">
        <g transform="matrix(1,0,0,1,-74.4011,-15.4376)">
            <g transform="matrix(1.1582,0,0,1.1582,-1381.2,-309.301)">
                <path d="M9722.43,6385.1L9309.64,6006.3C9288.27,5986.69 9259.99,5976.38 9231.01,5977.62C9202.03,5978.86 9174.73,5991.57 9155.12,6012.94C9099.64,6073.4 9024.02,6155.8 8968.54,6216.26C8948.93,6237.63 8938.61,6265.92 8939.86,6294.89C8941.1,6323.87 8953.81,6351.17 8975.18,6370.78L9671.86,7010.1L9672.36,7010.55L9672.37,7010.56C9693.63,7029.84 9720.44,7039.19 9747.09,7038.87L9747.22,7038.87L9747.72,7038.86L9747.78,7038.86L9747.79,7038.86L9747.87,7038.86L9748.35,7038.85L9748.46,7038.85L9748.47,7038.85L9748.53,7038.85L9748.99,7038.83L9749.14,7038.83L9749.15,7038.83L9749.18,7038.83L9749.66,7038.81L9749.81,7038.81L9749.84,7038.81L9750.49,7038.78C9750.72,7038.77 9750.94,7038.76 9751.16,7038.75L9751.17,7038.75L9751.33,7038.74L9751.8,7038.72L9751.83,7038.71L9751.85,7038.71L9752,7038.7L9752.46,7038.68L9752.51,7038.68L9752.53,7038.67L9752.64,7038.67L9753.11,7038.64L9753.19,7038.63L9753.2,7038.63L9753.27,7038.63L9753.77,7038.59L9753.89,7038.58C9780.47,7036.61 9806.38,7024.99 9825.91,7003.97L9825.92,7003.96L9826.38,7003.46L10909.9,5822.74C10950.7,5778.24 10947.7,5709.06 10903.2,5668.22C10842.8,5612.74 10760.4,5537.12 10699.9,5481.64C10655.4,5440.8 10586.2,5443.77 10545.4,5488.28L9722.43,6385.1Z" style="fill:rgb(146,191,208);fill-opacity:0.29;"/>
            </g>
        </g>
        <g transform="matrix(1,0,0,1,-74.4011,-15.4376)">
            <g transform="matrix(7.66497,0,0,7.66497,4165.97,2601.56)">
                <g>
                    <g id="glasses">
                        <g id="glassleft" transform="matrix(0.631824,0,0,0.631824,274.672,133.906)">
                            <path d="M719.361,562.484C721.331,572.107 721.909,585.312 731.529,590.328C746.032,597.891 761.069,594.07 773.041,584.109C778.96,579.184 780.912,569.165 781.027,561.622C781.154,553.304 778.289,547.071 769.975,546.342C766.676,546.053 759.235,545.114 755.924,545.093C746.99,545.036 737.381,543.226 728.664,546.385C724.854,547.766 720.814,550.095 719.571,554.244C718.571,557.582 718.883,559.108 719.361,562.484Z" style="fill:rgb(219,250,255);"/>
                        </g>
                        <g id="glassright" transform="matrix(-0.631824,0,0,0.631824,1274.3,133.906)">
                            <path d="M719.361,562.484C721.331,572.107 721.909,585.312 731.529,590.328C746.032,597.891 761.069,594.07 773.041,584.109C778.96,579.184 780.912,569.165 781.027,561.622C781.154,553.304 778.289,547.071 769.975,546.342C766.676,546.053 759.235,545.114 755.924,545.093C746.99,545.036 737.381,543.226 728.664,546.385C724.854,547.766 720.814,550.095 719.571,554.244C718.571,557.582 718.883,559.108 719.361,562.484Z" style="fill:rgb(219,250,255);"/>
                        </g>
                        <g id="textleft" transform="matrix(1,0,0,1,-1.04911,-1.45741)">
                            <g transform="matrix(0.233005,0,0,0.142265,603.256,433.982)">
                                <path d="M596.455,359.281C596.455,357.852 596.108,356.481 595.491,355.471C594.874,354.46 594.037,353.892 593.164,353.892C587.836,353.892 577.38,353.892 572.051,353.892C571.179,353.892 570.342,354.46 569.725,355.471C569.108,356.481 568.761,357.852 568.761,359.281C568.761,359.281 568.761,359.282 568.761,359.282C568.761,360.711 569.108,362.082 569.725,363.093C570.342,364.103 571.179,364.671 572.051,364.671C577.38,364.671 587.836,364.671 593.164,364.671C594.037,364.671 594.874,364.103 595.491,363.093C596.108,362.082 596.455,360.711 596.455,359.282C596.455,359.282 596.455,359.281 596.455,359.281Z" style="fill:rgb(171,225,225);"/>
                            </g>
                            <g transform="matrix(0.233005,0,0,0.142265,603.481,451.567)">
                                <path d="M596.455,359.281C596.455,357.852 596.108,356.481 595.491,355.471C594.874,354.46 594.037,353.892 593.164,353.892C587.836,353.892 577.38,353.892 572.051,353.892C571.179,353.892 570.342,354.46 569.725,355.471C569.108,356.481 568.761,357.852 568.761,359.281C568.761,359.281 568.761,359.282 568.761,359.282C568.761,360.711 569.108,362.082 569.725,363.093C570.342,364.103 571.179,364.671 572.051,364.671C577.38,364.671 587.836,364.671 593.164,364.671C594.037,364.671 594.874,364.103 595.491,363.093C596.108,362.082 596.455,360.711 596.455,359.282C596.455,359.282 596.455,359.281 596.455,359.281Z" style="fill:rgb(171,225,225);"/>
                            </g>
                            <g transform="matrix(0.23827,0,0,0.142265,605.413,436.642)">
                                <path d="M596.455,359.281C596.455,357.852 596.116,356.481 595.512,355.471C594.909,354.46 594.09,353.892 593.237,353.892C587.908,353.892 577.308,353.892 571.979,353.892C571.125,353.892 570.307,354.46 569.704,355.471C569.1,356.481 568.761,357.852 568.761,359.281C568.761,359.281 568.761,359.282 568.761,359.282C568.761,360.711 569.1,362.082 569.704,363.093C570.307,364.103 571.125,364.671 571.979,364.671C577.308,364.671 587.908,364.671 593.237,364.671C594.09,364.671 594.909,364.103 595.512,363.093C596.116,362.082 596.455,360.711 596.455,359.282C596.455,359.282 596.455,359.281 596.455,359.281Z" style="fill:rgb(143,226,224);"/>
                            </g>
                            <g transform="matrix(0.23827,0,0,0.142265,605.638,454.227)">
                                <path d="M596.455,359.281C596.455,357.852 596.116,356.481 595.512,355.471C594.909,354.46 594.09,353.892 593.237,353.892C587.908,353.892 577.308,353.892 571.979,353.892C571.125,353.892 570.307,354.46 569.704,355.471C569.1,356.481 568.761,357.852 568.761,359.281C568.761,359.281 568.761,359.282 568.761,359.282C568.761,360.711 569.1,362.082 569.704,363.093C570.307,364.103 571.125,364.671 571.979,364.671C577.308,364.671 587.908,364.671 593.237,364.671C594.09,364.671 594.909,364.103 595.512,363.093C596.116,362.082 596.455,360.711 596.455,359.282C596.455,359.282 596.455,359.281 596.455,359.281Z" style="fill:rgb(143,226,224);"/>
                            </g>
                            <g transform="matrix(0.23827,0,0,0.142265,608.699,438.743)">
                                <path d="M596.455,359.281C596.455,357.852 596.116,356.481 595.512,355.471C594.909,354.46 594.09,353.892 593.237,353.892C587.908,353.892 577.308,353.892 571.979,353.892C571.125,353.892 570.307,354.46 569.704,355.471C569.1,356.481 568.761,357.852 568.761,359.281C568.761,359.281 568.761,359.282 568.761,359.282C568.761,360.711 569.1,362.082 569.704,363.093C570.307,364.103 571.125,364.671 571.979,364.671C577.308,364.671 587.908,364.671 593.237,364.671C594.09,364.671 594.909,364.103 595.512,363.093C596.116,362.082 596.455,360.711 596.455,359.282C596.455,359.282 596.455,359.281 596.455,359.281Z" style="fill:rgb(143,226,224);"/>
                            </g>
                            <g transform="matrix(0.23827,0,0,0.142265,608.924,456.328)">
                                <path d="M596.455,359.281C596.455,357.852 596.116,356.481 595.512,355.471C594.909,354.46 594.09,353.892 593.237,353.892C587.908,353.892 577.308,353.892 571.979,353.892C571.125,353.892 570.307,354.46 569.704,355.471C569.1,356.481 568.761,357.852 568.761,359.281C568.761,359.281 568.761,359.282 568.761,359.282C568.761,360.711 569.1,362.082 569.704,363.093C570.307,364.103 571.125,364.671 571.979,364.671C577.308,364.671 587.908,364.671 593.237,364.671C594.09,364.671 594.909,364.103 595.512,363.093C596.116,362.082 596.455,360.711 596.455,359.282C596.455,359.282 596.455,359.281 596.455,359.281Z" style="fill:rgb(143,226,224);"/>
                            </g>
                            <g transform="matrix(0.23827,0,0,0.142265,600.333,443.691)">
                                <path d="M596.455,359.281C596.455,357.852 596.116,356.481 595.512,355.471C594.909,354.46 594.09,353.892 593.237,353.892C587.908,353.892 577.308,353.892 571.979,353.892C571.125,353.892 570.307,354.46 569.704,355.471C569.1,356.481 568.761,357.852 568.761,359.281C568.761,359.281 568.761,359.282 568.761,359.282C568.761,360.711 569.1,362.082 569.704,363.093C570.307,364.103 571.125,364.671 571.979,364.671C577.308,364.671 587.908,364.671 593.237,364.671C594.09,364.671 594.909,364.103 595.512,363.093C596.116,362.082 596.455,360.711 596.455,359.282C596.455,359.282 596.455,359.281 596.455,359.281Z" style="fill:rgb(143,226,224);"/>
                            </g>
                            <g transform="matrix(0.23827,0,0,0.142265,600.3,446.335)">
                                <path d="M596.455,359.281C596.455,357.852 596.116,356.481 595.512,355.471C594.909,354.46 594.09,353.892 593.237,353.892C587.908,353.892 577.308,353.892 571.979,353.892C571.125,353.892 570.307,354.46 569.704,355.471C569.1,356.481 568.761,357.852 568.761,359.281C568.761,359.281 568.761,359.282 568.761,359.282C568.761,360.711 569.1,362.082 569.704,363.093C570.307,364.103 571.125,364.671 571.979,364.671C577.308,364.671 587.908,364.671 593.237,364.671C594.09,364.671 594.909,364.103 595.512,363.093C596.116,362.082 596.455,360.711 596.455,359.282C596.455,359.282 596.455,359.281 596.455,359.281Z" style="fill:rgb(143,226,224);"/>
                            </g>
                            <g transform="matrix(0.23827,0,0,0.142265,600.479,431.51)">
                                <path d="M596.455,359.281C596.455,357.852 596.116,356.481 595.512,355.471C594.909,354.46 594.09,353.892 593.237,353.892C587.908,353.892 577.308,353.892 571.979,353.892C571.125,353.892 570.307,354.46 569.704,355.471C569.1,356.481 568.761,357.852 568.761,359.281C568.761,359.281 568.761,359.282 568.761,359.282C568.761,360.711 569.1,362.082 569.704,363.093C570.307,364.103 571.125,364.671 571.979,364.671C577.308,364.671 587.908,364.671 593.237,364.671C594.09,364.671 594.909,364.103 595.512,363.093C596.116,362.082 596.455,360.711 596.455,359.282C596.455,359.282 596.455,359.281 596.455,359.281Z" style="fill:rgb(143,226,224);"/>
                            </g>
                            <g transform="matrix(0.143102,0,0,0.142265,654.39,436.598)">
                                <path d="M596.455,359.281C596.455,357.852 595.89,356.481 594.885,355.471C593.881,354.46 592.518,353.892 591.097,353.892C586.205,353.892 579.011,353.892 574.118,353.892C572.698,353.892 571.335,354.46 570.33,355.471C569.326,356.481 568.761,357.852 568.761,359.281C568.761,359.281 568.761,359.282 568.761,359.282C568.761,360.711 569.326,362.082 570.33,363.093C571.335,364.103 572.698,364.671 574.118,364.671C579.011,364.671 586.205,364.671 591.097,364.671C592.518,364.671 593.881,364.103 594.885,363.093C595.89,362.082 596.455,360.711 596.455,359.282C596.455,359.282 596.455,359.281 596.455,359.281Z" style="fill:rgb(171,225,225);"/>
                            </g>
                            <g transform="matrix(0.143102,0,0,0.142265,654.615,454.183)">
                                <path d="M596.455,359.281C596.455,357.852 595.89,356.481 594.885,355.471C593.881,354.46 592.518,353.892 591.097,353.892C586.205,353.892 579.011,353.892 574.118,353.892C572.698,353.892 571.335,354.46 570.33,355.471C569.326,356.481 568.761,357.852 568.761,359.281C568.761,359.281 568.761,359.282 568.761,359.282C568.761,360.711 569.326,362.082 570.33,363.093C571.335,364.103 572.698,364.671 574.118,364.671C579.011,364.671 586.205,364.671 591.097,364.671C592.518,364.671 593.881,364.103 594.885,363.093C595.89,362.082 596.455,360.711 596.455,359.282C596.455,359.282 596.455,359.281 596.455,359.281Z" style="fill:rgb(171,225,225);"/>
                            </g>
                            <g transform="matrix(0.281175,0,0,0.142265,575.859,438.853)">
                                <path d="M596.455,359.281C596.455,357.852 596.167,356.481 595.656,355.471C595.145,354.46 594.451,353.892 593.728,353.892C588.427,353.892 576.788,353.892 571.488,353.892C570.765,353.892 570.071,354.46 569.56,355.471C569.049,356.481 568.761,357.852 568.761,359.281C568.761,359.281 568.761,359.282 568.761,359.282C568.761,360.711 569.049,362.082 569.56,363.093C570.071,364.103 570.765,364.671 571.488,364.671C576.788,364.671 588.427,364.671 593.728,364.671C594.451,364.671 595.145,364.103 595.656,363.093C596.167,362.082 596.455,360.711 596.455,359.282C596.455,359.282 596.455,359.281 596.455,359.281Z" style="fill:rgb(171,225,225);"/>
                            </g>
                            <g transform="matrix(0.281175,0,0,0.142265,576.084,456.438)">
                                <path d="M596.455,359.281C596.455,357.852 596.167,356.481 595.656,355.471C595.145,354.46 594.451,353.892 593.728,353.892C588.427,353.892 576.788,353.892 571.488,353.892C570.765,353.892 570.071,354.46 569.56,355.471C569.049,356.481 568.761,357.852 568.761,359.281C568.761,359.281 568.761,359.282 568.761,359.282C568.761,360.711 569.049,362.082 569.56,363.093C570.071,364.103 570.765,364.671 571.488,364.671C576.788,364.671 588.427,364.671 593.728,364.671C594.451,364.671 595.145,364.103 595.656,363.093C596.167,362.082 596.455,360.711 596.455,359.282C596.455,359.282 596.455,359.281 596.455,359.281Z" style="fill:rgb(171,225,225);"/>
                            </g>
                            <g transform="matrix(0.281175,0,0,0.142265,583.37,446.341)">
                                <path d="M596.455,359.281C596.455,357.852 596.167,356.481 595.656,355.471C595.145,354.46 594.451,353.892 593.728,353.892C588.427,353.892 576.788,353.892 571.488,353.892C570.765,353.892 570.071,354.46 569.56,355.471C569.049,356.481 568.761,357.852 568.761,359.281C568.761,359.281 568.761,359.282 568.761,359.282C568.761,360.711 569.049,362.082 569.56,363.093C570.071,364.103 570.765,364.671 571.488,364.671C576.788,364.671 588.427,364.671 593.728,364.671C594.451,364.671 595.145,364.103 595.656,363.093C596.167,362.082 596.455,360.711 596.455,359.282C596.455,359.282 596.455,359.281 596.455,359.281Z" style="fill:rgb(171,225,225);"/>
                            </g>
                            <g transform="matrix(0.281175,0,0,0.142265,588.619,449.021)">
                                <path d="M596.455,359.281C596.455,357.852 596.167,356.481 595.656,355.471C595.145,354.46 594.451,353.892 593.728,353.892C588.427,353.892 576.788,353.892 571.488,353.892C570.765,353.892 570.071,354.46 569.56,355.471C569.049,356.481 568.761,357.852 568.761,359.281C568.761,359.281 568.761,359.282 568.761,359.282C568.761,360.711 569.049,362.082 569.56,363.093C570.071,364.103 570.765,364.671 571.488,364.671C576.788,364.671 588.427,364.671 593.728,364.671C594.451,364.671 595.145,364.103 595.656,363.093C596.167,362.082 596.455,360.711 596.455,359.282C596.455,359.282 596.455,359.281 596.455,359.281Z" style="fill:rgb(171,225,225);"/>
                            </g>
                            <g transform="matrix(0.281175,0,0,0.142265,589.128,436.562)">
                                <path d="M596.455,359.281C596.455,357.852 596.167,356.481 595.656,355.471C595.145,354.46 594.451,353.892 593.728,353.892C588.427,353.892 576.788,353.892 571.488,353.892C570.765,353.892 570.071,354.46 569.56,355.471C569.049,356.481 568.761,357.852 568.761,359.281C568.761,359.281 568.761,359.282 568.761,359.282C568.761,360.711 569.049,362.082 569.56,363.093C570.071,364.103 570.765,364.671 571.488,364.671C576.788,364.671 588.427,364.671 593.728,364.671C594.451,364.671 595.145,364.103 595.656,363.093C596.167,362.082 596.455,360.711 596.455,359.282C596.455,359.282 596.455,359.281 596.455,359.281Z" style="fill:rgb(171,225,225);"/>
                            </g>
                            <g transform="matrix(0.281175,0,0,0.142265,589.353,454.147)">
                                <path d="M596.455,359.281C596.455,357.852 596.167,356.481 595.656,355.471C595.145,354.46 594.451,353.892 593.728,353.892C588.427,353.892 576.788,353.892 571.488,353.892C570.765,353.892 570.071,354.46 569.56,355.471C569.049,356.481 568.761,357.852 568.761,359.281C568.761,359.281 568.761,359.282 568.761,359.282C568.761,360.711 569.049,362.082 569.56,363.093C570.071,364.103 570.765,364.671 571.488,364.671C576.788,364.671 588.427,364.671 593.728,364.671C594.451,364.671 595.145,364.103 595.656,363.093C596.167,362.082 596.455,360.711 596.455,359.282C596.455,359.282 596.455,359.281 596.455,359.281Z" style="fill:rgb(171,225,225);"/>
                            </g>
                            <g transform="matrix(0.281175,0,0,0.142265,576.015,449.035)">
                                <path d="M596.455,359.281C596.455,357.852 596.167,356.481 595.656,355.471C595.145,354.46 594.451,353.892 593.728,353.892C588.427,353.892 576.788,353.892 571.488,353.892C570.765,353.892 570.071,354.46 569.56,355.471C569.049,356.481 568.761,357.852 568.761,359.281C568.761,359.281 568.761,359.282 568.761,359.282C568.761,360.711 569.049,362.082 569.56,363.093C570.071,364.103 570.765,364.671 571.488,364.671C576.788,364.671 588.427,364.671 593.728,364.671C594.451,364.671 595.145,364.103 595.656,363.093C596.167,362.082 596.455,360.711 596.455,359.282C596.455,359.282 596.455,359.281 596.455,359.281Z" style="fill:rgb(171,225,225);"/>
                            </g>
                            <g transform="matrix(0.139211,0,0,0.156141,656.667,436.293)">
                                <path d="M596.455,359.28C596.455,356.305 593.749,353.892 590.412,353.892C585.785,353.892 579.431,353.892 574.804,353.892C571.467,353.892 568.761,356.305 568.761,359.28C568.761,359.281 568.761,359.282 568.761,359.283C568.761,362.259 571.467,364.671 574.804,364.671C579.431,364.671 585.785,364.671 590.412,364.671C593.749,364.671 596.455,362.259 596.455,359.283C596.455,359.282 596.455,359.281 596.455,359.28Z" style="fill:rgb(143,226,224);"/>
                            </g>
                            <g transform="matrix(0.107049,0,0,0.142265,681.838,433.927)">
                                <path d="M596.455,359.281C596.455,357.852 595.7,356.481 594.357,355.471C593.014,354.46 591.193,353.892 589.293,353.892L575.923,353.892C574.023,353.892 572.202,354.46 570.859,355.471C569.516,356.481 568.761,357.852 568.761,359.281L568.761,359.282C568.761,360.711 569.516,362.082 570.859,363.093C572.202,364.103 574.023,364.671 575.923,364.671L589.293,364.671C591.193,364.671 593.014,364.103 594.357,363.093C595.7,362.082 596.455,360.711 596.455,359.282L596.455,359.281Z" style="fill:rgb(132,226,225);"/>
                            </g>
                            <g transform="matrix(0.107049,0,0,0.142265,682.063,451.512)">
                                <path d="M596.455,359.281C596.455,357.852 595.7,356.481 594.357,355.471C593.014,354.46 591.193,353.892 589.293,353.892C585.181,353.892 580.034,353.892 575.923,353.892C574.023,353.892 572.202,354.46 570.859,355.471C569.516,356.481 568.761,357.852 568.761,359.281C568.761,359.281 568.761,359.282 568.761,359.282C568.761,360.711 569.516,362.082 570.859,363.093C572.202,364.103 574.023,364.671 575.923,364.671L589.293,364.671C591.193,364.671 593.014,364.103 594.357,363.093C595.7,362.082 596.455,360.711 596.455,359.282L596.455,359.281Z" style="fill:rgb(132,226,225);"/>
                            </g>
                            <g transform="matrix(0.107049,0,0,0.142265,683.85,449.033)">
                                <path d="M596.455,359.281C596.455,357.852 595.7,356.481 594.357,355.471C593.014,354.46 591.193,353.892 589.293,353.892C585.181,353.892 580.034,353.892 575.923,353.892C574.023,353.892 572.202,354.46 570.859,355.471C569.516,356.481 568.761,357.852 568.761,359.281L568.761,359.282C568.761,360.711 569.516,362.082 570.859,363.093C572.202,364.103 574.023,364.671 575.923,364.671C580.034,364.671 585.181,364.671 589.293,364.671C591.193,364.671 593.014,364.103 594.357,363.093C595.7,362.082 596.455,360.711 596.455,359.282C596.455,359.282 596.455,359.281 596.455,359.281Z" style="fill:rgb(132,226,225);"/>
                            </g>
                        </g>
                        <g id="textright" transform="matrix(1,0,0,1,69.0514,-1.51406)">
                            <g transform="matrix(0.233005,0,0,0.142265,584.737,433.982)">
                                <path d="M596.455,359.281C596.455,357.852 596.108,356.481 595.491,355.471C594.874,354.46 594.037,353.892 593.164,353.892C587.836,353.892 577.38,353.892 572.051,353.892C571.179,353.892 570.342,354.46 569.725,355.471C569.108,356.481 568.761,357.852 568.761,359.281C568.761,359.281 568.761,359.282 568.761,359.282C568.761,360.711 569.108,362.082 569.725,363.093C570.342,364.103 571.179,364.671 572.051,364.671C577.38,364.671 587.836,364.671 593.164,364.671C594.037,364.671 594.874,364.103 595.491,363.093C596.108,362.082 596.455,360.711 596.455,359.282C596.455,359.282 596.455,359.281 596.455,359.281Z" style="fill:rgb(171,225,225);"/>
                            </g>
                            <g transform="matrix(0.233005,0,0,0.142265,584.962,451.567)">
                                <path d="M596.455,359.281C596.455,357.852 596.108,356.481 595.491,355.471C594.874,354.46 594.037,353.892 593.164,353.892C587.836,353.892 577.38,353.892 572.051,353.892C571.179,353.892 570.342,354.46 569.725,355.471C569.108,356.481 568.761,357.852 568.761,359.281C568.761,359.281 568.761,359.282 568.761,359.282C568.761,360.711 569.108,362.082 569.725,363.093C570.342,364.103 571.179,364.671 572.051,364.671C577.38,364.671 587.836,364.671 593.164,364.671C594.037,364.671 594.874,364.103 595.491,363.093C596.108,362.082 596.455,360.711 596.455,359.282C596.455,359.282 596.455,359.281 596.455,359.281Z" style="fill:rgb(171,225,225);"/>
                            </g>
                            <g transform="matrix(0.23827,0,0,0.142265,586.894,436.642)">
                                <path d="M596.455,359.281C596.455,357.852 596.116,356.481 595.512,355.471C594.909,354.46 594.09,353.892 593.237,353.892C587.908,353.892 577.308,353.892 571.979,353.892C571.125,353.892 570.307,354.46 569.704,355.471C569.1,356.481 568.761,357.852 568.761,359.281C568.761,359.281 568.761,359.282 568.761,359.282C568.761,360.711 569.1,362.082 569.704,363.093C570.307,364.103 571.125,364.671 571.979,364.671C577.308,364.671 587.908,364.671 593.237,364.671C594.09,364.671 594.909,364.103 595.512,363.093C596.116,362.082 596.455,360.711 596.455,359.282C596.455,359.282 596.455,359.281 596.455,359.281Z" style="fill:rgb(143,226,224);"/>
                            </g>
                            <g transform="matrix(0.23827,0,0,0.142265,587.12,454.227)">
                                <path d="M596.455,359.281C596.455,357.852 596.116,356.481 595.512,355.471C594.909,354.46 594.09,353.892 593.237,353.892C587.908,353.892 577.308,353.892 571.979,353.892C571.125,353.892 570.307,354.46 569.704,355.471C569.1,356.481 568.761,357.852 568.761,359.281C568.761,359.281 568.761,359.282 568.761,359.282C568.761,360.711 569.1,362.082 569.704,363.093C570.307,364.103 571.125,364.671 571.979,364.671C577.308,364.671 587.908,364.671 593.237,364.671C594.09,364.671 594.909,364.103 595.512,363.093C596.116,362.082 596.455,360.711 596.455,359.282C596.455,359.282 596.455,359.281 596.455,359.281Z" style="fill:rgb(143,226,224);"/>
                            </g>
                            <g transform="matrix(0.23827,0,0,0.142265,590.18,438.743)">
                                <path d="M596.455,359.281C596.455,357.852 596.116,356.481 595.512,355.471C594.909,354.46 594.09,353.892 593.237,353.892C587.908,353.892 577.308,353.892 571.979,353.892C571.125,353.892 570.307,354.46 569.704,355.471C569.1,356.481 568.761,357.852 568.761,359.281C568.761,359.281 568.761,359.282 568.761,359.282C568.761,360.711 569.1,362.082 569.704,363.093C570.307,364.103 571.125,364.671 571.979,364.671C577.308,364.671 587.908,364.671 593.237,364.671C594.09,364.671 594.909,364.103 595.512,363.093C596.116,362.082 596.455,360.711 596.455,359.282C596.455,359.282 596.455,359.281 596.455,359.281Z" style="fill:rgb(143,226,224);"/>
                            </g>
                            <g transform="matrix(0.23827,0,0,0.142265,590.405,456.328)">
                                <path d="M596.455,359.281C596.455,357.852 596.116,356.481 595.512,355.471C594.909,354.46 594.09,353.892 593.237,353.892C587.908,353.892 577.308,353.892 571.979,353.892C571.125,353.892 570.307,354.46 569.704,355.471C569.1,356.481 568.761,357.852 568.761,359.281C568.761,359.281 568.761,359.282 568.761,359.282C568.761,360.711 569.1,362.082 569.704,363.093C570.307,364.103 571.125,364.671 571.979,364.671C577.308,364.671 587.908,364.671 593.237,364.671C594.09,364.671 594.909,364.103 595.512,363.093C596.116,362.082 596.455,360.711 596.455,359.282C596.455,359.282 596.455,359.281 596.455,359.281Z" style="fill:rgb(143,226,224);"/>
                            </g>
                            <g transform="matrix(0.23827,0,0,0.142265,581.814,443.691)">
                                <path d="M596.455,359.281C596.455,357.852 596.116,356.481 595.512,355.471C594.909,354.46 594.09,353.892 593.237,353.892C587.908,353.892 577.308,353.892 571.979,353.892C571.125,353.892 570.307,354.46 569.704,355.471C569.1,356.481 568.761,357.852 568.761,359.281C568.761,359.281 568.761,359.282 568.761,359.282C568.761,360.711 569.1,362.082 569.704,363.093C570.307,364.103 571.125,364.671 571.979,364.671C577.308,364.671 587.908,364.671 593.237,364.671C594.09,364.671 594.909,364.103 595.512,363.093C596.116,362.082 596.455,360.711 596.455,359.282C596.455,359.282 596.455,359.281 596.455,359.281Z" style="fill:rgb(143,226,224);"/>
                            </g>
                            <g transform="matrix(0.23827,0,0,0.142265,581.781,446.335)">
                                <path d="M596.455,359.281C596.455,357.852 596.116,356.481 595.512,355.471C594.909,354.46 594.09,353.892 593.237,353.892C587.908,353.892 577.308,353.892 571.979,353.892C571.125,353.892 570.307,354.46 569.704,355.471C569.1,356.481 568.761,357.852 568.761,359.281C568.761,359.281 568.761,359.282 568.761,359.282C568.761,360.711 569.1,362.082 569.704,363.093C570.307,364.103 571.125,364.671 571.979,364.671C577.308,364.671 587.908,364.671 593.237,364.671C594.09,364.671 594.909,364.103 595.512,363.093C596.116,362.082 596.455,360.711 596.455,359.282C596.455,359.282 596.455,359.281 596.455,359.281Z" style="fill:rgb(143,226,224);"/>
                            </g>
                            <g transform="matrix(0.23827,0,0,0.142265,581.96,431.51)">
                                <path d="M596.455,359.281C596.455,357.852 596.116,356.481 595.512,355.471C594.909,354.46 594.09,353.892 593.237,353.892C587.908,353.892 577.308,353.892 571.979,353.892C571.125,353.892 570.307,354.46 569.704,355.471C569.1,356.481 568.761,357.852 568.761,359.281C568.761,359.281 568.761,359.282 568.761,359.282C568.761,360.711 569.1,362.082 569.704,363.093C570.307,364.103 571.125,364.671 571.979,364.671C577.308,364.671 587.908,364.671 593.237,364.671C594.09,364.671 594.909,364.103 595.512,363.093C596.116,362.082 596.455,360.711 596.455,359.282C596.455,359.282 596.455,359.281 596.455,359.281Z" style="fill:rgb(143,226,224);"/>
                            </g>
                            <g transform="matrix(0.143102,0,0,0.142265,635.871,436.598)">
                                <path d="M596.455,359.281C596.455,357.852 595.89,356.481 594.885,355.471C593.881,354.46 592.518,353.892 591.097,353.892C586.205,353.892 579.011,353.892 574.118,353.892C572.698,353.892 571.335,354.46 570.33,355.471C569.326,356.481 568.761,357.852 568.761,359.281C568.761,359.281 568.761,359.282 568.761,359.282C568.761,360.711 569.326,362.082 570.33,363.093C571.335,364.103 572.698,364.671 574.118,364.671C579.011,364.671 586.205,364.671 591.097,364.671C592.518,364.671 593.881,364.103 594.885,363.093C595.89,362.082 596.455,360.711 596.455,359.282C596.455,359.282 596.455,359.281 596.455,359.281Z" style="fill:rgb(171,225,225);"/>
                            </g>
                            <g transform="matrix(0.143102,0,0,0.142265,636.096,454.183)">
                                <path d="M596.455,359.281C596.455,357.852 595.89,356.481 594.885,355.471C593.881,354.46 592.518,353.892 591.097,353.892C586.205,353.892 579.011,353.892 574.118,353.892C572.698,353.892 571.335,354.46 570.33,355.471C569.326,356.481 568.761,357.852 568.761,359.281C568.761,359.281 568.761,359.282 568.761,359.282C568.761,360.711 569.326,362.082 570.33,363.093C571.335,364.103 572.698,364.671 574.118,364.671C579.011,364.671 586.205,364.671 591.097,364.671C592.518,364.671 593.881,364.103 594.885,363.093C595.89,362.082 596.455,360.711 596.455,359.282C596.455,359.282 596.455,359.281 596.455,359.281Z" style="fill:rgb(171,225,225);"/>
                            </g>
                            <g transform="matrix(0.281175,0,0,0.142265,557.34,438.853)">
                                <path d="M596.455,359.281C596.455,357.852 596.167,356.481 595.656,355.471C595.145,354.46 594.451,353.892 593.728,353.892C588.427,353.892 576.788,353.892 571.488,353.892C570.765,353.892 570.071,354.46 569.56,355.471C569.049,356.481 568.761,357.852 568.761,359.281C568.761,359.281 568.761,359.282 568.761,359.282C568.761,360.711 569.049,362.082 569.56,363.093C570.071,364.103 570.765,364.671 571.488,364.671C576.788,364.671 588.427,364.671 593.728,364.671C594.451,364.671 595.145,364.103 595.656,363.093C596.167,362.082 596.455,360.711 596.455,359.282C596.455,359.282 596.455,359.281 596.455,359.281Z" style="fill:rgb(171,225,225);"/>
                            </g>
                            <g transform="matrix(0.165992,0,0,0.152776,626.267,452.719)">
                                <path d="M596.455,359.281C596.455,357.852 595.932,356.481 595.002,355.471C594.072,354.46 592.81,353.892 591.495,353.892C586.471,353.892 578.745,353.892 573.721,353.892C572.405,353.892 571.144,354.46 570.214,355.471C569.284,356.481 568.761,357.852 568.761,359.281C568.761,359.281 568.761,359.282 568.761,359.282C568.761,360.711 569.284,362.082 570.214,363.093C571.144,364.103 572.405,364.671 573.721,364.671C578.745,364.671 586.471,364.671 591.495,364.671C592.81,364.671 594.072,364.103 595.002,363.093C595.932,362.082 596.455,360.711 596.455,359.282C596.455,359.282 596.455,359.281 596.455,359.281Z" style="fill:rgb(171,225,225);"/>
                            </g>
                            <g transform="matrix(0.281175,0,0,0.142265,564.851,446.341)">
                                <path d="M596.455,359.281C596.455,357.852 596.167,356.481 595.656,355.471C595.145,354.46 594.451,353.892 593.728,353.892C588.427,353.892 576.788,353.892 571.488,353.892C570.765,353.892 570.071,354.46 569.56,355.471C569.049,356.481 568.761,357.852 568.761,359.281C568.761,359.281 568.761,359.282 568.761,359.282C568.761,360.711 569.049,362.082 569.56,363.093C570.071,364.103 570.765,364.671 571.488,364.671C576.788,364.671 588.427,364.671 593.728,364.671C594.451,364.671 595.145,364.103 595.656,363.093C596.167,362.082 596.455,360.711 596.455,359.282C596.455,359.282 596.455,359.281 596.455,359.281Z" style="fill:rgb(171,225,225);"/>
                            </g>
                            <g transform="matrix(0.281175,0,0,0.142265,565.03,431.515)">
                                <path d="M596.455,359.281C596.455,357.852 596.167,356.481 595.656,355.471C595.145,354.46 594.451,353.892 593.728,353.892C588.427,353.892 576.788,353.892 571.488,353.892C570.765,353.892 570.071,354.46 569.56,355.471C569.049,356.481 568.761,357.852 568.761,359.281C568.761,359.281 568.761,359.282 568.761,359.282C568.761,360.711 569.049,362.082 569.56,363.093C570.071,364.103 570.765,364.671 571.488,364.671C576.788,364.671 588.427,364.671 593.728,364.671C594.451,364.671 595.145,364.103 595.656,363.093C596.167,362.082 596.455,360.711 596.455,359.282C596.455,359.282 596.455,359.281 596.455,359.281Z" style="fill:rgb(171,225,225);"/>
                            </g>
                            <g transform="matrix(0.281175,0,0,0.142265,570.1,449.021)">
                                <path d="M596.455,359.281C596.455,357.852 596.167,356.481 595.656,355.471C595.145,354.46 594.451,353.892 593.728,353.892C588.427,353.892 576.788,353.892 571.488,353.892C570.765,353.892 570.071,354.46 569.56,355.471C569.049,356.481 568.761,357.852 568.761,359.281C568.761,359.281 568.761,359.282 568.761,359.282C568.761,360.711 569.049,362.082 569.56,363.093C570.071,364.103 570.765,364.671 571.488,364.671C576.788,364.671 588.427,364.671 593.728,364.671C594.451,364.671 595.145,364.103 595.656,363.093C596.167,362.082 596.455,360.711 596.455,359.282C596.455,359.282 596.455,359.281 596.455,359.281Z" style="fill:rgb(171,225,225);"/>
                            </g>
                            <g transform="matrix(0.281175,0,0,0.142265,570.609,436.562)">
                                <path d="M596.455,359.281C596.455,357.852 596.167,356.481 595.656,355.471C595.145,354.46 594.451,353.892 593.728,353.892C588.427,353.892 576.788,353.892 571.488,353.892C570.765,353.892 570.071,354.46 569.56,355.471C569.049,356.481 568.761,357.852 568.761,359.281C568.761,359.281 568.761,359.282 568.761,359.282C568.761,360.711 569.049,362.082 569.56,363.093C570.071,364.103 570.765,364.671 571.488,364.671C576.788,364.671 588.427,364.671 593.728,364.671C594.451,364.671 595.145,364.103 595.656,363.093C596.167,362.082 596.455,360.711 596.455,359.282C596.455,359.282 596.455,359.281 596.455,359.281Z" style="fill:rgb(171,225,225);"/>
                            </g>
                            <g transform="matrix(0.281175,0,0,0.142265,570.834,454.147)">
                                <path d="M596.455,359.281C596.455,357.852 596.167,356.481 595.656,355.471C595.145,354.46 594.451,353.892 593.728,353.892C588.427,353.892 576.788,353.892 571.488,353.892C570.765,353.892 570.071,354.46 569.56,355.471C569.049,356.481 568.761,357.852 568.761,359.281C568.761,359.281 568.761,359.282 568.761,359.282C568.761,360.711 569.049,362.082 569.56,363.093C570.071,364.103 570.765,364.671 571.488,364.671C576.788,364.671 588.427,364.671 593.728,364.671C594.451,364.671 595.145,364.103 595.656,363.093C596.167,362.082 596.455,360.711 596.455,359.282C596.455,359.282 596.455,359.281 596.455,359.281Z" style="fill:rgb(171,225,225);"/>
                            </g>
                            <g transform="matrix(0.281175,0,0,0.142265,557.496,449.035)">
                                <path d="M596.455,359.281C596.455,357.852 596.167,356.481 595.656,355.471C595.145,354.46 594.451,353.892 593.728,353.892C588.427,353.892 576.788,353.892 571.488,353.892C570.765,353.892 570.071,354.46 569.56,355.471C569.049,356.481 568.761,357.852 568.761,359.281C568.761,359.281 568.761,359.282 568.761,359.282C568.761,360.711 569.049,362.082 569.56,363.093C570.071,364.103 570.765,364.671 571.488,364.671C576.788,364.671 588.427,364.671 593.728,364.671C594.451,364.671 595.145,364.103 595.656,363.093C596.167,362.082 596.455,360.711 596.455,359.282C596.455,359.282 596.455,359.281 596.455,359.281Z" style="fill:rgb(171,225,225);"/>
                            </g>
                            <g transform="matrix(0.139211,0,0,0.156141,638.148,436.293)">
                                <path d="M596.455,359.28C596.455,356.305 593.749,353.892 590.412,353.892C585.785,353.892 579.431,353.892 574.804,353.892C571.467,353.892 568.761,356.305 568.761,359.28C568.761,359.281 568.761,359.282 568.761,359.283C568.761,362.259 571.467,364.671 574.804,364.671C579.431,364.671 585.785,364.671 590.412,364.671C593.749,364.671 596.455,362.259 596.455,359.283C596.455,359.282 596.455,359.281 596.455,359.28Z" style="fill:rgb(143,226,224);"/>
                            </g>
                            <g transform="matrix(0.107049,0,0,0.142265,663.319,433.927)">
                                <path d="M596.455,359.281C596.455,357.852 595.7,356.481 594.357,355.471C593.014,354.46 591.193,353.892 589.293,353.892L575.923,353.892C574.023,353.892 572.202,354.46 570.859,355.471C569.516,356.481 568.761,357.852 568.761,359.281L568.761,359.282C568.761,360.711 569.516,362.082 570.859,363.093C572.202,364.103 574.023,364.671 575.923,364.671L589.293,364.671C591.193,364.671 593.014,364.103 594.357,363.093C595.7,362.082 596.455,360.711 596.455,359.282C596.455,359.282 596.455,359.281 596.455,359.281Z" style="fill:rgb(132,226,225);"/>
                            </g>
                            <g transform="matrix(0.107049,0,0,0.142265,665.332,449.033)">
                                <path d="M596.455,359.281C596.455,357.852 595.7,356.481 594.357,355.471C593.014,354.46 591.193,353.892 589.293,353.892C585.181,353.892 580.034,353.892 575.923,353.892C574.023,353.892 572.202,354.46 570.859,355.471C569.516,356.481 568.761,357.852 568.761,359.281L568.761,359.282C568.761,360.711 569.516,362.082 570.859,363.093C572.202,364.103 574.023,364.671 575.923,364.671C580.034,364.671 585.181,364.671 589.293,364.671C591.193,364.671 593.014,364.103 594.357,363.093C595.7,362.082 596.455,360.711 596.455,359.282C596.455,359.282 596.455,359.281 596.455,359.281Z" style="fill:rgb(132,226,225);"/>
                            </g>
                        </g>
                        <g transform="matrix(0.204956,0,0,0.204956,616.417,411.763)">
                            <path d="M558.908,384.672C559.195,389.285 559.482,393.905 560.109,398.484C561.397,407.896 563.496,416.886 567.277,425.653C577.425,449.183 594.972,465.103 620.76,468.068C645.286,470.887 673.726,467.776 695.024,454.4C722.29,437.275 732.998,400.993 731.266,370.604C729.268,335.575 688.922,330.597 662.16,330.592C647.003,330.589 631.85,331.067 616.7,331.524C606.417,331.835 597.784,331.402 588.352,335.042C575.98,339.817 562.725,349.4 558.671,362.685C557.943,365.071 557.67,367.611 557.697,370.105C557.75,374.977 558.33,379.834 558.908,384.672ZM981.269,385.033C980.982,389.646 980.695,394.267 980.068,398.846C978.78,408.257 976.682,417.247 972.9,426.014C962.752,449.544 945.205,465.465 919.417,468.429C894.891,471.249 866.451,468.137 845.153,454.761C817.887,437.636 807.179,401.354 808.912,370.965C810.909,335.936 851.256,330.958 878.017,330.953C893.174,330.95 908.328,331.428 923.477,331.886C933.76,332.196 942.393,331.764 951.825,335.404C964.198,340.178 977.453,349.761 981.506,363.047C982.234,365.433 982.507,367.972 982.48,370.467C982.428,375.339 981.847,380.196 981.269,385.033ZM778.625,367.854C773.544,365.435 767.247,365.566 762.599,367.84C756.859,370.648 754.614,374.117 752.523,380.179C744.73,402.771 747.627,403.829 736.217,424.805C727.886,440.121 717.155,455.328 702.164,464.886C677.795,480.423 642.791,485.156 614.555,480.72C578.962,475.127 558.561,449.651 550.308,415.949C546.961,402.284 544.813,388.351 541.796,374.609C539.313,363.298 537.481,356.043 525.806,352.052L524.572,323.773C535.452,321.899 546.345,320.022 557.32,318.832C570.431,317.41 583.598,316.387 596.778,315.943C634.147,314.684 669.232,314.584 705.355,324.099C719.126,327.727 730.97,336.526 744.799,339.623C752.405,341.326 762.396,340.349 769.545,340.398C776.716,340.349 787.453,341.536 795.223,339.928C803.204,338.276 815.25,331.68 821.215,329.245C834.304,323.903 847.901,320.662 861.921,318.522C886.663,314.746 920.548,315.534 943.399,316.304C956.58,316.748 969.746,317.771 982.857,319.193C993.832,320.383 1004.73,322.26 1015.61,324.135L1014.37,352.413C1002.7,356.405 1000.86,363.66 998.381,374.97C995.365,388.712 993.216,402.645 989.87,416.311C981.616,450.012 961.215,475.489 925.623,481.081C897.386,485.518 862.383,480.784 838.013,465.247C823.022,455.689 812.291,440.482 803.96,425.166C792.521,404.135 795.191,403.197 787.655,380.54C785.727,374.746 784.135,370.478 778.625,367.854Z" style="fill:rgb(0,53,67);"/>
                        </g>
                    </g>
                </g>
            </g>
        </g>
        <g transform="matrix(1,0,0,1,-74.4011,-15.4376)">
            <g transform="matrix(1,0,0,1,-841.569,283.968)">
                <g transform="matrix(1,0,0,1,10131.6,6346.97)">
                    <path d="M302.107,258.262C304.508,254.103 306,249.417 306,245.209L306,99.14C306,94.932 304.51,90.247 302.108,86.088L153,172.175L302.107,258.262Z" style="fill:rgb(0,89,156);fill-rule:nonzero;"/>
                </g>
                <g transform="matrix(1,0,0,1,10131.6,6346.97)">
                    <path d="M166.25,341.193L292.75,268.159C296.394,266.055 299.706,262.422 302.107,258.262L153,172.175L3.893,258.263C6.294,262.422 9.607,266.056 13.25,268.159L139.75,341.193C147.037,345.401 158.963,345.401 166.25,341.193Z" style="fill:rgb(0,68,130);fill-rule:nonzero;"/>
                </g>
                <g transform="matrix(1,0,0,1,10131.6,6346.97)">
                    <path d="M302.108,86.087C299.706,81.927 296.393,78.294 292.75,76.19L166.25,3.156C158.963,-1.052 147.037,-1.052 139.75,3.156L13.25,76.19C5.962,80.397 0,90.725 0,99.14L0,245.209C0,249.417 1.491,254.103 3.893,258.262L153,172.175L302.108,86.087Z" style="fill:rgb(101,154,210);fill-rule:nonzero;"/>
                </g>
                <g transform="matrix(1,0,0,1,10131.6,6346.97)">
                    <path d="M153,274.175C96.757,274.175 51,228.418 51,172.175C51,115.932 96.757,70.175 153,70.175C189.292,70.175 223.139,89.705 241.331,121.143L197.188,146.687C188.083,130.951 171.15,121.175 153,121.175C124.878,121.175 102,144.053 102,172.175C102,200.296 124.878,223.175 153,223.175C171.152,223.175 188.085,213.399 197.191,197.66L241.334,223.203C223.142,254.644 189.294,274.175 153,274.175Z" style="fill:white;fill-rule:nonzero;"/>
                </g>
                <g transform="matrix(1,0,0,1,10131.6,6346.97)">
                    <path d="M255,166.508L243.666,166.508L243.666,155.175L232.334,155.175L232.334,166.508L221,166.508L221,177.841L232.334,177.841L232.334,189.175L243.666,189.175L243.666,177.841L255,177.841L255,166.508Z" style="fill:white;fill-rule:nonzero;"/>
                </g>
                <g transform="matrix(1,0,0,1,10131.6,6346.97)">
                    <path d="M297.5,166.508L286.166,166.508L286.166,155.175L274.834,155.175L274.834,166.508L263.5,166.508L263.5,177.841L274.834,177.841L274.834,189.175L286.166,189.175L286.166,177.841L297.5,177.841L297.5,166.508Z" style="fill:white;fill-rule:nonzero;"/>
                </g>
            </g>
        </g>
        <g transform="matrix(1,0,0,1,-74.4011,-15.4376)">
            <g transform="matrix(1.11689,0,0,1.11689,-2043.69,-478.402)">
                <g transform="matrix(0.895347,0,0,0.895347,964.539,-127.292)">
                    <path d="M10439.6,7243.37L10439.6,7005.79L10693.5,7005.79C10695.5,7016.11 10697.6,7026.43 10700.1,7036.64C10715.3,7098.69 10753.7,7144.79 10819.2,7155.09C10868.6,7162.84 10929.7,7154.15 10972.3,7126.99C10999,7109.96 11018.5,7083.19 11033.3,7055.9C11047.2,7030.48 11048.4,7022.85 11053.1,7005.79L11080.5,7005.79C11085.3,7023.2 11086.6,7030.68 11100.7,7056.46C11115.5,7083.76 11135,7110.53 11161.7,7127.56C11204.3,7154.72 11265.4,7163.41 11314.8,7155.66C11380.3,7145.36 11418.7,7099.26 11433.9,7037.21C11436.4,7026.81 11438.5,7016.31 11440.6,7005.79L11694.4,7005.79L11694.4,7713.29L10439.6,7713.29L10439.6,7603.24L10565.5,7530.51C10569.6,7528.16 10573.3,7524.1 10576,7519.45L10576.1,7519.24C10578.7,7514.65 10580.3,7509.5 10580.3,7504.87L10580.3,7341.73C10580.3,7337.03 10578.7,7331.8 10576,7327.15L10439.6,7405.92L10439.6,7405.92L10576,7327.15C10573.3,7322.51 10569.6,7318.45 10565.5,7316.1L10439.6,7243.37ZM10841,7135.12L10841.8,7135.17L10843.3,7135.26L10843.7,7135.28L10845.2,7135.36L10846.3,7135.41L10847.5,7135.45L10848.7,7135.49L10849.5,7135.51L10851,7135.55L10852.8,7135.58L10853.7,7135.59L10855.2,7135.6L10854,7135.59L10852.8,7135.58L10851.2,7135.55L10849.8,7135.52L10849.2,7135.51L10848.3,7135.48L10847.4,7135.45C10846.7,7135.42 10846,7135.39 10845.2,7135.36L10844.2,7135.31L10843.2,7135.25L10841.5,7135.15L10841,7135.12ZM10859.2,7135.57L10857.6,7135.59L10858.9,7135.57L10860.7,7135.54L10862.4,7135.49L10863.2,7135.47L10864.3,7135.43L10862.4,7135.5L10860.7,7135.54L10859.2,7135.57ZM10866.5,7135.34C10866.9,7135.32 10867.3,7135.3 10867.7,7135.28L10866.5,7135.34C10866.1,7135.36 10865.8,7135.37 10865.4,7135.39L10866.5,7135.34ZM10841,7135.12L10840.6,7135.09L10839.7,7135.03L10841,7135.12ZM10877,7134.61L10875.2,7134.76L10874.4,7134.83L10873.6,7134.9L10872.2,7135C10872.5,7134.98 10872.9,7134.95 10873.2,7134.93L10874.9,7134.79L10875.5,7134.74L10877,7134.61ZM10833.4,7134.49L10834.1,7134.55L10835,7134.65L10835,7134.64L10833.8,7134.53L10832.3,7134.38L10833.4,7134.49ZM10882.2,7134.07L10880.6,7134.24L10878.9,7134.41L10877,7134.61L10877.1,7134.6L10878.7,7134.44L10879.2,7134.39L10880.8,7134.22L10882.2,7134.07ZM10830.9,7134.22L10829.5,7134.05L10828.7,7133.95L10828,7133.87L10828.8,7133.96L10829.5,7134.05L10830.4,7134.15L10830.9,7134.22ZM10882.3,7134.05L10882.2,7134.07L10883.3,7133.94L10882.3,7134.05ZM10884.8,7133.74L10885.8,7133.62L10884.2,7133.82L10883.3,7133.94L10883.9,7133.86L10884.8,7133.74ZM10824.1,7133.33L10825.2,7133.49L10824,7133.31L10822.7,7133.1L10824.1,7133.33ZM10818.4,7132.37L10819.6,7132.58L10820.7,7132.78L10821.3,7132.89L10820.4,7132.73L10819.9,7132.64L10818.7,7132.42C10818.7,7132.42 10817.1,7132.12 10817.1,7132.12L10816,7131.88L10815.5,7131.77L10814.4,7131.55L10813.7,7131.37L10812.8,7131.17L10812,7130.99L10813.1,7131.24L10814.1,7131.49L10815,7131.67L10816.1,7131.91L10817.3,7132.15L10818.4,7132.37ZM10810,7130.48L10810.5,7130.61L10809.5,7130.36L10810,7130.48ZM10805.2,7129.14L10806.1,7129.41L10806.7,7129.58L10807.4,7129.78L10806.4,7129.49L10805.2,7129.14ZM10928.3,7123.6L10926.7,7124.17L10925.3,7124.61L10924.1,7125.03L10925.4,7124.61L10926.7,7124.16L10928,7123.7L10928.3,7123.6ZM10929.3,7123.23L10929.9,7123.01L10928.8,7123.43L10929.3,7123.23ZM10873.8,7114.2C10873.8,7114.2 10872.2,7114.31 10872.2,7114.31L10870.7,7114.39L10871.9,7114.32L10873.1,7114.25L10874.1,7114.18L10875.6,7114.07L10873.8,7114.2ZM10845.2,7114.34L10846.2,7114.39C10845.9,7114.37 10845.6,7114.35 10845.2,7114.34L10844.3,7114.28C10844.6,7114.3 10844.9,7114.32 10845.2,7114.34ZM10842.5,7114.16L10843.4,7114.22C10842.8,7114.18 10842.2,7114.14 10841.5,7114.09L10840.6,7114.02C10841.2,7114.07 10841.8,7114.11 10842.5,7114.16ZM10883.6,7113.3C10883.6,7113.3 10881.7,7113.51 10881.7,7113.51L10880.6,7113.62L10879.3,7113.75L10878.4,7113.84L10877.4,7113.92C10878.1,7113.86 10878.7,7113.81 10879.3,7113.75L10880.9,7113.59L10882,7113.47L10883.6,7113.3L10885.1,7113.12L10886,7113L10885,7113.13L10883.6,7113.3ZM11224.8,7109.11L11225.9,7109.4L11227,7109.67L11228.1,7109.94C11230.3,7110.46 11232.5,7110.95 11234.7,7111.39L11235.9,7111.62L11237.2,7111.88L11239,7112.2L11240.8,7112.5L11242.1,7112.72C11242.1,7112.72 11243.1,7112.87 11243.1,7112.87L11244.1,7113.02C11244.1,7113.02 11244.8,7113.13 11244.8,7113.13L11245.7,7113.26L11246.5,7113.37L11247.5,7113.5L11248.8,7113.66L11250,7113.82L11250.8,7113.91L11249,7113.69L11248.3,7113.61L11246.9,7113.42L11246.1,7113.31L11245.3,7113.2L11244.1,7113.02C11244.1,7113.02 11243.1,7112.87 11243.1,7112.87L11242.1,7112.72C11242.1,7112.72 11240.6,7112.47 11240.6,7112.47L11238.8,7112.17L11237.1,7111.86L11235.4,7111.53L11234.7,7111.39C11232.5,7110.95 11230.3,7110.46 11228.1,7109.94L11226.9,7109.64L11225.6,7109.31L11224.8,7109.11C11222.8,7108.59 11220.8,7108.04 11218.8,7107.44L11217.4,7107.02L11215.8,7106.49L11215.5,7106.39C11215.5,7106.39 11215.9,7106.52 11215.9,7106.52L11217.6,7107.06L11218.8,7107.44C11220.8,7108.04 11222.8,7108.59 11224.8,7109.11ZM10888.4,7112.68L10887.8,7112.76L10889.1,7112.57C10889.4,7112.54 10889.6,7112.51 10889.8,7112.47L10888.4,7112.68ZM10895.4,7111.55L10893.9,7111.82C10893.9,7111.82 10892.4,7112.07 10892.4,7112.07L10890.7,7112.33L10891.6,7112.2L10892.5,7112.06L10894,7111.8L10895.4,7111.55ZM10895.5,7111.54L10895.4,7111.55L10897,7111.27L10895.5,7111.54ZM10900,7110.67L10898.5,7110.98L10897,7111.27L10897.1,7111.26L10898.6,7110.96L10900,7110.67ZM10900.1,7110.66L10900,7110.67L10901.6,7110.35L10900.1,7110.66ZM10958.5,7109.34L10957.1,7110.19L10956.6,7110.47C10957.3,7110.1 10957.9,7109.73 10958.5,7109.36L10958.5,7109.34ZM10901.6,7110.34L10903,7110.03L10901.6,7110.35L10901.6,7110.34ZM10995.2,7074.73L10994.6,7075.49L10995.4,7074.45L10996.2,7073.39L10995.2,7074.73ZM10997.5,7071.55L10996.9,7072.33L10997.7,7071.27L10998.5,7070.2L10997.5,7071.55ZM11001.1,7066.33L11000.1,7067.79L10999.6,7068.58L11000.3,7067.49L11001.1,7066.29L11001.7,7065.47L11002.1,7064.78L11001.1,7066.33ZM11003.1,7063.25L11003.7,7062.44C11003.7,7062.44 11003,7063.47 11003,7063.47L11002.5,7064.24L11003.1,7063.25ZM11008.4,7054.82L11009,7053.7L11008.2,7055.08L11007.8,7055.7L11007.3,7056.56L11007.6,7056.07L11008.4,7054.82ZM11012,7048.53L11012.5,7047.52L11011.5,7049.39L11011.5,7049.35L11012,7048.53ZM10990.8,7042.67L10990.7,7042.8L10990.4,7043.44L10990.1,7044.06L10990.8,7042.67ZM10992.1,7039.9L10991.5,7041.12L10991.4,7041.27L10991.9,7040.34L10992.2,7039.58L10992.1,7039.9Z" style="fill:rgb(0,53,67);"/>
                </g>
                <g transform="matrix(0.895347,0,0,0.440295,964.539,3368.26)">
                    <rect x="10439.6" y="7713.29" width="1254.88" height="782.29" style="fill:rgb(109,162,178);"/>
                </g>
            </g>
        </g>
        <g transform="matrix(1,0,0,1,-74.4011,-15.4376)">
            <g transform="matrix(0.982564,0,0,1,-762.499,-620.193)">
                <rect x="10562.4" y="7392.5" width="1131.99" height="61.599" style="fill:rgb(109,162,178);"/>
            </g>
        </g>
        <g transform="matrix(1,0,0,1,-74.4011,-15.4376)">
            <g transform="matrix(6.12323e-17,-1,1,6.12323e-17,2533.33,17056.6)">
                <g transform="matrix(6.07153e-17,-1,1,6.07153e-17,3374.08,17931.7)">
                    <g transform="matrix(2.46983e-17,0.406789,-1.29264,7.84828e-17,20075.4,2610.89)">
                        <path d="M10095.8,7165.24C10095.8,7159.66 10081.4,7155.13 10063.6,7155.13C9983.36,7155.13 9780.31,7155.13 9780.31,7155.13L9780.31,7378.33L10065.4,7378.33C10073.4,7378.33 10081.2,7377.32 10086.9,7375.53C10092.6,7373.74 10095.8,7371.3 10095.8,7368.77C10095.8,7332.36 10095.8,7202.56 10095.8,7165.24Z" style="fill:rgb(109,162,178);"/>
                    </g>
                    <g>
                        <g>
                            <g transform="matrix(0.249761,0.0600909,-0.0611016,0.253962,9689.92,3991.46)">
                                <path d="M6211.68,8742.12C6197.44,8741.25 6183.17,8741.25 6168.93,8742.12L6163.28,8810.06C6150.26,8811.31 6137.35,8813.47 6124.64,8816.51L6097.23,8754.09C6083.48,8757.89 6069.98,8762.52 6056.8,8767.97L6073.51,8834.06C6061.61,8839.47 6050.09,8845.7 6039.06,8852.7L5992.87,8802.57C5981.1,8810.62 5969.83,8819.39 5959.14,8828.82L5996.4,8885.91C5986.9,8894.89 5978.03,8904.52 5969.86,8914.73L5909.9,8882.31C5901.38,8893.75 5893.58,8905.7 5886.52,8918.09L5940.3,8959.98C5934.23,8971.56 5928.97,8983.55 5924.56,8995.86L5857.32,8984.66C5852.98,8998.25 5849.48,9012.09 5846.83,9026.1L5911.29,9048.26C5909.31,9061.18 5908.23,9074.23 5908.06,9087.3L5840.82,9098.55C5841.13,9112.81 5842.31,9127.03 5844.35,9141.15L5912.52,9141.17C5914.84,9154.04 5918.06,9166.73 5922.14,9179.15L5862.2,9211.62C5867.12,9225 5872.85,9238.08 5879.37,9250.76L5943.85,9228.65C5950.23,9240.07 5957.39,9251.02 5965.28,9261.45L5919.13,9311.62C5928.13,9322.68 5937.8,9333.18 5948.08,9343.07L6001.89,9301.22C6011.63,9309.94 6021.95,9317.99 6032.8,9325.28L6005.45,9387.72C6017.55,9395.26 6030.11,9402.05 6043.04,9408.06L6080.35,9351.01C6092.39,9356.1 6104.77,9360.35 6117.4,9363.73L6111.8,9431.67C6125.69,9434.87 6139.77,9437.22 6153.96,9438.7L6170.72,9372.62C6183.76,9373.53 6196.85,9373.53 6209.89,9372.62L6226.65,9438.7C6240.84,9437.22 6254.92,9434.87 6268.81,9431.67L6263.21,9363.73C6275.84,9360.35 6288.22,9356.1 6300.26,9351.01L6337.57,9408.06C6350.51,9402.05 6363.06,9395.26 6375.16,9387.72L6347.81,9325.28C6358.65,9317.99 6368.98,9309.94 6378.72,9301.22L6432.53,9343.07C6442.81,9333.18 6452.48,9322.68 6461.48,9311.62L6415.33,9261.45C6423.22,9251.02 6430.38,9240.07 6436.76,9228.65L6501.24,9250.76C6507.76,9238.08 6513.49,9225 6518.41,9211.62L6458.47,9179.15C6462.55,9166.73 6465.77,9154.04 6468.09,9141.17L6536.26,9141.15C6538.3,9127.03 6539.48,9112.81 6539.79,9098.55L6472.55,9087.3C6472.38,9074.23 6471.3,9061.18 6469.32,9048.26L6533.78,9026.1C6531.13,9012.09 6527.63,8998.25 6523.29,8984.66L6456.05,8995.86C6451.64,8983.55 6446.38,8971.56 6440.31,8959.98L6494.09,8918.09C6487.03,8905.7 6479.23,8893.75 6470.71,8882.31L6410.74,8914.73C6402.58,8904.52 6393.71,8894.89 6384.21,8885.91L6421.48,8828.82C6410.78,8819.39 6399.51,8810.62 6387.74,8802.57L6341.55,8852.7C6330.52,8845.7 6319,8839.47 6307.1,8834.06L6323.81,8767.97C6310.63,8762.52 6297.13,8757.89 6283.38,8754.09L6255.97,8816.51C6243.26,8813.47 6230.35,8811.31 6217.33,8810.06L6211.68,8742.12ZM6190.31,9004.95C6237.81,9004.95 6276.39,9043.52 6276.39,9091.03C6276.39,9138.54 6237.81,9177.11 6190.31,9177.11C6142.8,9177.11 6104.23,9138.54 6104.23,9091.03C6104.23,9043.52 6142.8,9004.95 6190.31,9004.95Z" style="fill:rgb(61,113,128);"/>
                            </g>
                            <g transform="matrix(-1.07188e-15,1,-1,-1.07188e-15,17257.8,-4107.91)">
                                <g transform="matrix(1.32729,0,0,1.32729,-3396.97,-2133.44)">
                                    <path d="M10512.4,6519.87L10594.8,6552.23C10597.9,6553.45 10600.3,6553.75 10601.8,6553.75C10603,6553.75 10605.5,6553.45 10609.1,6551.93C10634.7,6542.5 10655.1,6532.16 10655.1,6514.52L10655.1,6509.65L10673,6511.78C10673.6,6514.21 10673.9,6517.86 10673.9,6520.9C10673.9,6548.28 10647.8,6560.44 10607.6,6575.95L10512.4,6612.02L10512.4,6641.54C10512.4,6648.08 10517.7,6653.38 10524.2,6653.38C10558,6653.38 10654.7,6653.38 10688.5,6653.38C10695,6653.38 10700.3,6648.08 10700.3,6641.54C10700.3,6609.56 10700.3,6521.67 10700.3,6489.69C10700.3,6483.15 10695,6477.85 10688.5,6477.85C10654.7,6477.85 10558,6477.85 10524.2,6477.85C10517.7,6477.85 10512.4,6483.15 10512.4,6489.69L10512.4,6519.87Z" style="fill:rgb(28,79,93);"/>
                                </g>
                                <g transform="matrix(1.32729,0,0,1.32729,-3396.97,-2133.44)">
                                    <path d="M10512.4,6542.58L10512.4,6588.24L10547.1,6575.95C10556.8,6572.31 10566.2,6568.96 10577.8,6565.92L10577.8,6564.7C10568.4,6562.88 10557.4,6558.62 10548,6555.58L10512.4,6542.58Z" style="fill:rgb(28,79,93);"/>
                                </g>
                                <g transform="matrix(6.07153e-17,1,-1,6.07153e-17,18143.2,-4166.44)">
                                    <path d="M10686.8,7587.19L10716.9,7587.19L10734.2,7539.94C10738.2,7527.42 10743.9,7512.89 10746.3,7500.37L10747.9,7500.37C10751.9,7515.71 10756.4,7528.23 10761.2,7541.15L10777.5,7587.19L10809.1,7587.19L10761.2,7460.81C10740.6,7407.52 10724.5,7372.8 10688.1,7372.8C10684.1,7372.8 10679.3,7373.21 10676,7374.02L10673.2,7397.83L10679.7,7397.83C10703.1,7397.83 10716.8,7424.88 10729.3,7458.79C10731.3,7463.64 10731.7,7466.87 10731.7,7468.48C10731.7,7470.5 10731.3,7473.73 10729.7,7477.77L10686.8,7587.19Z" style="fill:rgb(219,255,255);"/>
                                </g>
                            </g>
                        </g>
                        <g transform="matrix(-1.07188e-15,1,-1,-1.07188e-15,17257.8,-4402.79)">
                            <g>
                                <g transform="matrix(1.32729,0,0,1.32729,-3396.97,-2133.44)">
                                    <path d="M10512.4,6519.87L10594.8,6552.23C10597.9,6553.45 10600.3,6553.75 10601.8,6553.75C10603,6553.75 10605.5,6553.45 10609.1,6551.93C10634.7,6542.5 10655.1,6532.16 10655.1,6514.52L10655.1,6509.65L10673,6511.78C10673.6,6514.21 10673.9,6517.86 10673.9,6520.9C10673.9,6548.28 10647.8,6560.44 10607.6,6575.95L10512.4,6612.02L10512.4,6641.54C10512.4,6648.08 10517.7,6653.38 10524.2,6653.38C10558,6653.38 10654.7,6653.38 10688.5,6653.38C10695,6653.38 10700.3,6648.08 10700.3,6641.54C10700.3,6609.56 10700.3,6521.67 10700.3,6489.69C10700.3,6483.15 10695,6477.85 10688.5,6477.85C10654.7,6477.85 10558,6477.85 10524.2,6477.85C10517.7,6477.85 10512.4,6483.15 10512.4,6489.69L10512.4,6519.87Z" style="fill:rgb(28,79,93);"/>
                                </g>
                                <g transform="matrix(1.32729,0,0,1.32729,-3396.97,-2133.44)">
                                    <path d="M10512.4,6542.58L10512.4,6588.24L10547.1,6575.95C10556.8,6572.31 10566.2,6568.96 10577.8,6565.92L10577.8,6564.7C10568.4,6562.88 10557.4,6558.62 10548,6555.58L10512.4,6542.58Z" style="fill:rgb(28,79,93);"/>
                                </g>
                                <g transform="matrix(6.07153e-17,1,-1,6.07153e-17,18143.2,-4166.44)">
                                    <path d="M10686.8,7587.19L10716.9,7587.19L10734.2,7539.94C10738.2,7527.42 10743.9,7512.89 10746.3,7500.37L10747.9,7500.37C10751.9,7515.71 10756.4,7528.23 10761.2,7541.15L10777.5,7587.19L10809.1,7587.19L10761.2,7460.81C10740.6,7407.52 10724.5,7372.8 10688.1,7372.8C10684.1,7372.8 10679.3,7373.21 10676,7374.02L10673.2,7397.83L10679.7,7397.83C10703.1,7397.83 10716.8,7424.88 10729.3,7458.79C10731.3,7463.64 10731.7,7466.87 10731.7,7468.48C10731.7,7470.5 10731.3,7473.73 10729.7,7477.77L10686.8,7587.19Z" style="fill:rgb(219,255,255);"/>
                                </g>
                            </g>
                        </g>
                        <g transform="matrix(-1,1.21948e-16,-1.21948e-16,-1,20390.7,13667.1)">
                            <rect x="9668.88" y="6732.05" width="104.404" height="107.049" style="fill:rgb(146,179,0);"/>
                        </g>
                        <g transform="matrix(-1,1.21948e-16,-1.21948e-16,-1,20085.6,13667.1)">
                            <rect x="9668.88" y="6732.05" width="104.404" height="107.049" style="fill:rgb(146,179,0);"/>
                        </g>
                        <g transform="matrix(-1,1.21948e-16,-1.21948e-16,-1,19755.1,13667.1)">
                            <rect x="9668.88" y="6732.05" width="104.404" height="107.049" style="fill:rgb(146,179,0);"/>
                        </g>
                        <g transform="matrix(0.248003,0.248191,-0.247198,0.250222,11386.2,3068.24)">
                            <path d="M6204.81,8741.77C6195.15,8741.37 6185.47,8741.37 6175.8,8741.77L6171.35,8800.12C6162.2,8800.71 6153.1,8801.74 6144.05,8803.19L6126.73,8747.3C6117.22,8749.06 6107.78,8751.21 6098.44,8753.76L6107.09,8811.63C6098.31,8814.25 6089.66,8817.27 6081.16,8820.7L6051.84,8770.07C6042.95,8773.9 6034.23,8778.1 6025.69,8782.65L6047,8837.15C6039.02,8841.66 6031.26,8846.53 6023.74,8851.77L5983.89,8808.93C5976.08,8814.64 5968.51,8820.67 5961.2,8827.01L5994.1,8875.41C5987.32,8881.57 5980.84,8888.05 5974.68,8894.83L5926.29,8861.93C5919.94,8869.24 5913.91,8876.81 5908.19,8884.61L5951.04,8924.47C5945.8,8931.99 5940.93,8939.75 5936.43,8947.73L5881.93,8926.42C5877.37,8934.96 5873.17,8943.68 5869.34,8952.57L5919.97,8981.89C5916.54,8990.39 5913.52,8999.04 5910.9,9007.82L5853.03,8999.17C5850.48,9008.51 5848.33,9017.94 5846.57,9027.46L5902.47,9044.78C5901.01,9053.83 5899.98,9062.93 5899.39,9072.08L5841.04,9076.53C5840.64,9086.19 5840.64,9095.87 5841.04,9105.54L5899.39,9109.99C5899.98,9119.13 5901.01,9128.24 5902.47,9137.28L5846.57,9154.61C5848.33,9164.12 5850.48,9173.56 5853.03,9182.9L5910.9,9174.25C5913.52,9183.03 5916.54,9191.68 5919.97,9200.18L5869.34,9229.5C5873.17,9238.39 5877.37,9247.11 5881.93,9255.64L5936.43,9234.34C5940.93,9242.32 5945.8,9250.08 5951.04,9257.59L5908.19,9297.45C5913.91,9305.26 5919.94,9312.83 5926.29,9320.14L5974.68,9287.24C5980.84,9294.01 5987.32,9300.5 5994.1,9306.66L5961.2,9355.05C5968.51,9361.39 5976.08,9367.43 5983.89,9373.14L6023.74,9330.3C6031.26,9335.53 6039.02,9340.41 6047,9344.91L6025.69,9399.41C6034.23,9403.97 6042.95,9408.17 6051.84,9412L6081.16,9361.36C6089.66,9364.79 6098.31,9367.82 6107.09,9370.44L6098.44,9428.31C6107.78,9430.85 6117.22,9433.01 6126.73,9434.77L6144.05,9378.87C6153.1,9380.33 6162.2,9381.35 6171.35,9381.95L6175.8,9440.3C6185.47,9440.7 6195.15,9440.7 6204.81,9440.3L6209.26,9381.95C6218.4,9381.35 6227.51,9380.33 6236.56,9378.87L6253.88,9434.77C6263.39,9433.01 6272.83,9430.85 6282.17,9428.31L6273.52,9370.44C6282.3,9367.82 6290.95,9364.79 6299.45,9361.36L6328.77,9412C6337.66,9408.17 6346.38,9403.97 6354.91,9399.41L6333.61,9344.91C6341.59,9340.41 6349.35,9335.53 6356.86,9330.3L6396.72,9373.14C6404.53,9367.43 6412.1,9361.39 6419.41,9355.05L6386.51,9306.66C6393.28,9300.5 6399.77,9294.01 6405.93,9287.24L6454.32,9320.14C6460.66,9312.83 6466.7,9305.26 6472.41,9297.45L6429.57,9257.59C6434.81,9250.08 6439.68,9242.32 6444.18,9234.34L6498.68,9255.64C6503.24,9247.11 6507.44,9238.39 6511.27,9229.5L6460.64,9200.18C6464.07,9191.68 6467.09,9183.03 6469.71,9174.25L6527.58,9182.9C6530.12,9173.56 6532.28,9164.12 6534.04,9154.61L6478.14,9137.28C6479.6,9128.24 6480.62,9119.13 6481.22,9109.99L6539.57,9105.54C6539.97,9095.87 6539.97,9086.19 6539.57,9076.53L6481.22,9072.08C6480.62,9062.93 6479.6,9053.83 6478.14,9044.78L6534.04,9027.46C6532.28,9017.94 6530.12,9008.51 6527.58,8999.17L6469.71,9007.82C6467.09,8999.04 6464.07,8990.39 6460.64,8981.89L6511.27,8952.57C6507.44,8943.68 6503.24,8934.96 6498.68,8926.42L6444.18,8947.73C6439.68,8939.75 6434.81,8931.99 6429.57,8924.47L6472.41,8884.61C6466.7,8876.81 6460.66,8869.24 6454.32,8861.93L6405.93,8894.83C6399.77,8888.05 6393.28,8881.57 6386.51,8875.41L6419.41,8827.01C6412.1,8820.67 6404.53,8814.64 6396.72,8808.93L6356.86,8851.77C6349.35,8846.53 6341.59,8841.66 6333.61,8837.15L6354.91,8782.65C6346.38,8778.1 6337.66,8773.9 6328.77,8770.07L6299.45,8820.7C6290.95,8817.27 6282.3,8814.25 6273.52,8811.63L6282.17,8753.76C6272.83,8751.21 6263.39,8749.06 6253.88,8747.3L6236.56,8803.19C6227.51,8801.74 6218.4,8800.71 6209.26,8800.12L6204.81,8741.77ZM6190.31,9003.64C6238.54,9003.64 6277.69,9042.8 6277.69,9091.03C6277.69,9139.27 6238.54,9178.42 6190.31,9178.42C6142.07,9178.42 6102.91,9139.27 6102.91,9091.03C6102.91,9042.8 6142.07,9003.64 6190.31,9003.64Z" style="fill:rgb(153,206,223);"/>
                        </g>
                    </g>
                </g>
                <g transform="matrix(6.07153e-17,-1,1,6.07153e-17,3374.08,18249.4)">
                    <g transform="matrix(2.46983e-17,0.406789,-1.29264,7.84828e-17,20075.4,2610.89)">
                        <path d="M10095.8,7165.24C10095.8,7159.66 10081.4,7155.13 10063.6,7155.13L9780.31,7155.13L9780.31,7378.33L10065.4,7378.33C10073.4,7378.33 10081.2,7377.32 10086.9,7375.53C10092.6,7373.74 10095.8,7371.3 10095.8,7368.77C10095.8,7332.36 10095.8,7202.56 10095.8,7165.24Z" style="fill:rgb(109,162,178);"/>
                    </g>
                    <g>
                        <g>
                            <g transform="matrix(0.249761,0.0600909,-0.0611016,0.253962,9689.92,3991.46)">
                                <path d="M6211.68,8742.12C6197.44,8741.25 6183.17,8741.25 6168.93,8742.12L6163.28,8810.06C6150.26,8811.31 6137.35,8813.47 6124.64,8816.51L6097.23,8754.09C6083.48,8757.89 6069.98,8762.52 6056.8,8767.97L6073.51,8834.06C6061.61,8839.47 6050.09,8845.7 6039.06,8852.7L5992.87,8802.57C5981.1,8810.62 5969.83,8819.39 5959.14,8828.82L5996.4,8885.91C5986.9,8894.89 5978.03,8904.52 5969.86,8914.73L5909.9,8882.31C5901.38,8893.75 5893.58,8905.7 5886.52,8918.09L5940.3,8959.98C5934.23,8971.56 5928.97,8983.55 5924.56,8995.86L5857.32,8984.66C5852.98,8998.25 5849.48,9012.09 5846.83,9026.1L5911.29,9048.26C5909.31,9061.18 5908.23,9074.23 5908.06,9087.3L5840.82,9098.55C5841.13,9112.81 5842.31,9127.03 5844.35,9141.15L5912.52,9141.17C5914.84,9154.04 5918.06,9166.73 5922.14,9179.15L5862.2,9211.62C5867.12,9225 5872.85,9238.08 5879.37,9250.76L5943.85,9228.65C5950.23,9240.07 5957.39,9251.02 5965.28,9261.45L5919.13,9311.62C5928.13,9322.68 5937.8,9333.18 5948.08,9343.07L6001.89,9301.22C6011.63,9309.94 6021.95,9317.99 6032.8,9325.28L6005.45,9387.72C6017.55,9395.26 6030.11,9402.05 6043.04,9408.06L6080.35,9351.01C6092.39,9356.1 6104.77,9360.35 6117.4,9363.73L6111.8,9431.67C6125.69,9434.87 6139.77,9437.22 6153.96,9438.7L6170.72,9372.62C6183.76,9373.53 6196.85,9373.53 6209.89,9372.62L6226.65,9438.7C6240.84,9437.22 6254.92,9434.87 6268.81,9431.67L6263.21,9363.73C6275.84,9360.35 6288.22,9356.1 6300.26,9351.01L6337.57,9408.06C6350.51,9402.05 6363.06,9395.26 6375.16,9387.72L6347.81,9325.28C6358.65,9317.99 6368.98,9309.94 6378.72,9301.22L6432.53,9343.07C6442.81,9333.18 6452.48,9322.68 6461.48,9311.62L6415.33,9261.45C6423.22,9251.02 6430.38,9240.07 6436.76,9228.65L6501.24,9250.76C6507.76,9238.08 6513.49,9225 6518.41,9211.62L6458.47,9179.15C6462.55,9166.73 6465.77,9154.04 6468.09,9141.17L6536.26,9141.15C6538.3,9127.03 6539.48,9112.81 6539.79,9098.55L6472.55,9087.3C6472.38,9074.23 6471.3,9061.18 6469.32,9048.26L6533.78,9026.1C6531.13,9012.09 6527.63,8998.25 6523.29,8984.66L6456.05,8995.86C6451.64,8983.55 6446.38,8971.56 6440.31,8959.98L6494.09,8918.09C6487.03,8905.7 6479.23,8893.75 6470.71,8882.31L6410.74,8914.73C6402.58,8904.52 6393.71,8894.89 6384.21,8885.91L6421.48,8828.82C6410.78,8819.39 6399.51,8810.62 6387.74,8802.57L6341.55,8852.7C6330.52,8845.7 6319,8839.47 6307.1,8834.06L6323.81,8767.97C6310.63,8762.52 6297.13,8757.89 6283.38,8754.09L6255.97,8816.51C6243.26,8813.47 6230.35,8811.31 6217.33,8810.06L6211.68,8742.12ZM6190.31,9004.95C6237.81,9004.95 6276.39,9043.52 6276.39,9091.03C6276.39,9138.54 6237.81,9177.11 6190.31,9177.11C6142.8,9177.11 6104.23,9138.54 6104.23,9091.03C6104.23,9043.52 6142.8,9004.95 6190.31,9004.95Z" style="fill:rgb(61,113,128);"/>
                            </g>
                            <g transform="matrix(-1.07188e-15,1,-1,-1.07188e-15,17257.8,-4107.91)">
                                <g transform="matrix(1.32729,0,0,1.32729,-3396.97,-2133.44)">
                                    <path d="M10512.4,6519.87L10594.8,6552.23C10597.9,6553.45 10600.3,6553.75 10601.8,6553.75C10603,6553.75 10605.5,6553.45 10609.1,6551.93C10634.7,6542.5 10655.1,6532.16 10655.1,6514.52L10655.1,6509.65L10673,6511.78C10673.6,6514.21 10673.9,6517.86 10673.9,6520.9C10673.9,6548.28 10647.8,6560.44 10607.6,6575.95L10512.4,6612.02L10512.4,6641.54C10512.4,6648.08 10517.7,6653.38 10524.2,6653.38C10558,6653.38 10654.7,6653.38 10688.5,6653.38C10695,6653.38 10700.3,6648.08 10700.3,6641.54C10700.3,6609.56 10700.3,6521.67 10700.3,6489.69C10700.3,6483.15 10695,6477.85 10688.5,6477.85C10654.7,6477.85 10558,6477.85 10524.2,6477.85C10517.7,6477.85 10512.4,6483.15 10512.4,6489.69L10512.4,6519.87Z" style="fill:rgb(28,79,93);"/>
                                </g>
                                <g transform="matrix(1.32729,0,0,1.32729,-3396.97,-2133.44)">
                                    <path d="M10512.4,6542.58L10512.4,6588.24L10547.1,6575.95C10556.8,6572.31 10566.2,6568.96 10577.8,6565.92L10577.8,6564.7C10568.4,6562.88 10557.4,6558.62 10548,6555.58L10512.4,6542.58Z" style="fill:rgb(28,79,93);"/>
                                </g>
                                <g transform="matrix(6.07153e-17,1,-1,6.07153e-17,18143.2,-4166.44)">
                                    <path d="M10686.8,7587.19L10716.9,7587.19L10734.2,7539.94C10738.2,7527.42 10743.9,7512.89 10746.3,7500.37L10747.9,7500.37C10751.9,7515.71 10756.4,7528.23 10761.2,7541.15L10777.5,7587.19L10809.1,7587.19L10761.2,7460.81C10740.6,7407.52 10724.5,7372.8 10688.1,7372.8C10684.1,7372.8 10679.3,7373.21 10676,7374.02L10673.2,7397.83L10679.7,7397.83C10703.1,7397.83 10716.8,7424.88 10729.3,7458.79C10731.3,7463.64 10731.7,7466.87 10731.7,7468.48C10731.7,7470.5 10731.3,7473.73 10729.7,7477.77L10686.8,7587.19Z" style="fill:rgb(219,255,255);"/>
                                </g>
                            </g>
                        </g>
                        <g transform="matrix(-1.07188e-15,1,-1,-1.07188e-15,17257.8,-4402.79)">
                            <g>
                                <g transform="matrix(1.32729,0,0,1.32729,-3396.97,-2133.44)">
                                    <path d="M10512.4,6519.87L10594.8,6552.23C10597.9,6553.45 10600.3,6553.75 10601.8,6553.75C10603,6553.75 10605.5,6553.45 10609.1,6551.93C10634.7,6542.5 10655.1,6532.16 10655.1,6514.52L10655.1,6509.65L10673,6511.78C10673.6,6514.21 10673.9,6517.86 10673.9,6520.9C10673.9,6548.28 10647.8,6560.44 10607.6,6575.95L10512.4,6612.02L10512.4,6641.54C10512.4,6648.08 10517.7,6653.38 10524.2,6653.38C10558,6653.38 10654.7,6653.38 10688.5,6653.38C10695,6653.38 10700.3,6648.08 10700.3,6641.54C10700.3,6609.56 10700.3,6521.67 10700.3,6489.69C10700.3,6483.15 10695,6477.85 10688.5,6477.85C10654.7,6477.85 10558,6477.85 10524.2,6477.85C10517.7,6477.85 10512.4,6483.15 10512.4,6489.69L10512.4,6519.87Z" style="fill:rgb(28,79,93);"/>
                                </g>
                                <g transform="matrix(1.32729,0,0,1.32729,-3396.97,-2133.44)">
                                    <path d="M10512.4,6542.58L10512.4,6588.24L10547.1,6575.95C10556.8,6572.31 10566.2,6568.96 10577.8,6565.92L10577.8,6564.7C10568.4,6562.88 10557.4,6558.62 10548,6555.58L10512.4,6542.58Z" style="fill:rgb(28,79,93);"/>
                                </g>
                                <g transform="matrix(6.07153e-17,1,-1,6.07153e-17,18143.2,-4166.44)">
                                    <path d="M10686.8,7587.19L10716.9,7587.19L10734.2,7539.94C10738.2,7527.42 10743.9,7512.89 10746.3,7500.37L10747.9,7500.37C10751.9,7515.71 10756.4,7528.23 10761.2,7541.15L10777.5,7587.19L10809.1,7587.19L10761.2,7460.81C10740.6,7407.52 10724.5,7372.8 10688.1,7372.8C10684.1,7372.8 10679.3,7373.21 10676,7374.02L10673.2,7397.83L10679.7,7397.83C10703.1,7397.83 10716.8,7424.88 10729.3,7458.79C10731.3,7463.64 10731.7,7466.87 10731.7,7468.48C10731.7,7470.5 10731.3,7473.73 10729.7,7477.77L10686.8,7587.19Z" style="fill:rgb(219,255,255);"/>
                                </g>
                            </g>
                        </g>
                        <g transform="matrix(0.248003,0.248191,-0.247198,0.250222,11386.2,3068.24)">
                            <path d="M6204.81,8741.77C6195.15,8741.37 6185.47,8741.37 6175.8,8741.77L6171.35,8800.12C6162.2,8800.71 6153.1,8801.74 6144.05,8803.19L6126.73,8747.3C6117.22,8749.06 6107.78,8751.21 6098.44,8753.76L6107.09,8811.63C6098.31,8814.25 6089.66,8817.27 6081.16,8820.7L6051.84,8770.07C6042.95,8773.9 6034.23,8778.1 6025.69,8782.65L6047,8837.15C6039.02,8841.66 6031.26,8846.53 6023.74,8851.77L5983.89,8808.93C5976.08,8814.64 5968.51,8820.67 5961.2,8827.01L5994.1,8875.41C5987.32,8881.57 5980.84,8888.05 5974.68,8894.83L5926.29,8861.93C5919.94,8869.24 5913.91,8876.81 5908.19,8884.61L5951.04,8924.47C5945.8,8931.99 5940.93,8939.75 5936.43,8947.73L5881.93,8926.42C5877.37,8934.96 5873.17,8943.68 5869.34,8952.57L5919.97,8981.89C5916.54,8990.39 5913.52,8999.04 5910.9,9007.82L5853.03,8999.17C5850.48,9008.51 5848.33,9017.94 5846.57,9027.46L5902.47,9044.78C5901.01,9053.83 5899.98,9062.93 5899.39,9072.08L5841.04,9076.53C5840.64,9086.19 5840.64,9095.87 5841.04,9105.54L5899.39,9109.99C5899.98,9119.13 5901.01,9128.24 5902.47,9137.28L5846.57,9154.61C5848.33,9164.12 5850.48,9173.56 5853.03,9182.9L5910.9,9174.25C5913.52,9183.03 5916.54,9191.68 5919.97,9200.18L5869.34,9229.5C5873.17,9238.39 5877.37,9247.11 5881.93,9255.64L5936.43,9234.34C5940.93,9242.32 5945.8,9250.08 5951.04,9257.59L5908.19,9297.45C5913.91,9305.26 5919.94,9312.83 5926.29,9320.14L5974.68,9287.24C5980.84,9294.01 5987.32,9300.5 5994.1,9306.66L5961.2,9355.05C5968.51,9361.39 5976.08,9367.43 5983.89,9373.14L6023.74,9330.3C6031.26,9335.53 6039.02,9340.41 6047,9344.91L6025.69,9399.41C6034.23,9403.97 6042.95,9408.17 6051.84,9412L6081.16,9361.36C6089.66,9364.79 6098.31,9367.82 6107.09,9370.44L6098.44,9428.31C6107.78,9430.85 6117.22,9433.01 6126.73,9434.77L6144.05,9378.87C6153.1,9380.33 6162.2,9381.35 6171.35,9381.95L6175.8,9440.3C6185.47,9440.7 6195.15,9440.7 6204.81,9440.3L6209.26,9381.95C6218.4,9381.35 6227.51,9380.33 6236.56,9378.87L6253.88,9434.77C6263.39,9433.01 6272.83,9430.85 6282.17,9428.31L6273.52,9370.44C6282.3,9367.82 6290.95,9364.79 6299.45,9361.36L6328.77,9412C6337.66,9408.17 6346.38,9403.97 6354.91,9399.41L6333.61,9344.91C6341.59,9340.41 6349.35,9335.53 6356.86,9330.3L6396.72,9373.14C6404.53,9367.43 6412.1,9361.39 6419.41,9355.05L6386.51,9306.66C6393.28,9300.5 6399.77,9294.01 6405.93,9287.24L6454.32,9320.14C6460.66,9312.83 6466.7,9305.26 6472.41,9297.45L6429.57,9257.59C6434.81,9250.08 6439.68,9242.32 6444.18,9234.34L6498.68,9255.64C6503.24,9247.11 6507.44,9238.39 6511.27,9229.5L6460.64,9200.18C6464.07,9191.68 6467.09,9183.03 6469.71,9174.25L6527.58,9182.9C6530.12,9173.56 6532.28,9164.12 6534.04,9154.61L6478.14,9137.28C6479.6,9128.24 6480.62,9119.13 6481.22,9109.99L6539.57,9105.54C6539.97,9095.87 6539.97,9086.19 6539.57,9076.53L6481.22,9072.08C6480.62,9062.93 6479.6,9053.83 6478.14,9044.78L6534.04,9027.46C6532.28,9017.94 6530.12,9008.51 6527.58,8999.17L6469.71,9007.82C6467.09,8999.04 6464.07,8990.39 6460.64,8981.89L6511.27,8952.57C6507.44,8943.68 6503.24,8934.96 6498.68,8926.42L6444.18,8947.73C6439.68,8939.75 6434.81,8931.99 6429.57,8924.47L6472.41,8884.61C6466.7,8876.81 6460.66,8869.24 6454.32,8861.93L6405.93,8894.83C6399.77,8888.05 6393.28,8881.57 6386.51,8875.41L6419.41,8827.01C6412.1,8820.67 6404.53,8814.64 6396.72,8808.93L6356.86,8851.77C6349.35,8846.53 6341.59,8841.66 6333.61,8837.15L6354.91,8782.65C6346.38,8778.1 6337.66,8773.9 6328.77,8770.07L6299.45,8820.7C6290.95,8817.27 6282.3,8814.25 6273.52,8811.63L6282.17,8753.76C6272.83,8751.21 6263.39,8749.06 6253.88,8747.3L6236.56,8803.19C6227.51,8801.74 6218.4,8800.71 6209.26,8800.12L6204.81,8741.77ZM6190.31,9009.8C6235.14,9009.8 6271.54,9046.2 6271.54,9091.03C6271.54,9135.87 6235.14,9172.27 6190.31,9172.27C6145.47,9172.27 6109.07,9135.87 6109.07,9091.03C6109.07,9046.2 6145.47,9009.8 6190.31,9009.8Z" style="fill:rgb(153,206,223);"/>
                        </g>
                    </g>
                </g>
                <g transform="matrix(6.07153e-17,-1,1,6.07153e-17,3374.08,18567.1)">
                    <g transform="matrix(9.46793e-17,1.5594,-1.29264,7.84828e-17,20075.4,-9025.57)">
                        <path d="M10095.8,7165.24C10095.8,7159.66 10092,7155.13 10087.4,7155.13L9780.31,7155.13L9780.31,7378.33L10087.4,7378.33C10092,7378.33 10095.8,7373.8 10095.8,7368.22L10095.8,7165.24Z" style="fill:rgb(109,162,178);"/>
                    </g>
                    <g>
                        <g>
                            <g transform="matrix(0.249761,0.0600909,-0.0611016,0.253962,9689.92,3991.46)">
                                <path d="M6211.68,8742.12C6197.44,8741.25 6183.17,8741.25 6168.93,8742.12L6163.28,8810.06C6150.26,8811.31 6137.35,8813.47 6124.64,8816.51L6097.23,8754.09C6083.48,8757.89 6069.98,8762.52 6056.8,8767.97L6073.51,8834.06C6061.61,8839.47 6050.09,8845.7 6039.06,8852.7L5992.87,8802.57C5981.1,8810.62 5969.83,8819.39 5959.14,8828.82L5996.4,8885.91C5986.9,8894.89 5978.03,8904.52 5969.86,8914.73L5909.9,8882.31C5901.38,8893.75 5893.58,8905.7 5886.52,8918.09L5940.3,8959.98C5934.23,8971.56 5928.97,8983.55 5924.56,8995.86L5857.32,8984.66C5852.98,8998.25 5849.48,9012.09 5846.83,9026.1L5911.29,9048.26C5909.31,9061.18 5908.23,9074.23 5908.06,9087.3L5840.82,9098.55C5841.13,9112.81 5842.31,9127.03 5844.35,9141.15L5912.52,9141.17C5914.84,9154.04 5918.06,9166.73 5922.14,9179.15L5862.2,9211.62C5867.12,9225 5872.85,9238.08 5879.37,9250.76L5943.85,9228.65C5950.23,9240.07 5957.39,9251.02 5965.28,9261.45L5919.13,9311.62C5928.13,9322.68 5937.8,9333.18 5948.08,9343.07L6001.89,9301.22C6011.63,9309.94 6021.95,9317.99 6032.8,9325.28L6005.45,9387.72C6017.55,9395.26 6030.11,9402.05 6043.04,9408.06L6080.35,9351.01C6092.39,9356.1 6104.77,9360.35 6117.4,9363.73L6111.8,9431.67C6125.69,9434.87 6139.77,9437.22 6153.96,9438.7L6170.72,9372.62C6183.76,9373.53 6196.85,9373.53 6209.89,9372.62L6226.65,9438.7C6240.84,9437.22 6254.92,9434.87 6268.81,9431.67L6263.21,9363.73C6275.84,9360.35 6288.22,9356.1 6300.26,9351.01L6337.57,9408.06C6350.51,9402.05 6363.06,9395.26 6375.16,9387.72L6347.81,9325.28C6358.65,9317.99 6368.98,9309.94 6378.72,9301.22L6432.53,9343.07C6442.81,9333.18 6452.48,9322.68 6461.48,9311.62L6415.33,9261.45C6423.22,9251.02 6430.38,9240.07 6436.76,9228.65L6501.24,9250.76C6507.76,9238.08 6513.49,9225 6518.41,9211.62L6458.47,9179.15C6462.55,9166.73 6465.77,9154.04 6468.09,9141.17L6536.26,9141.15C6538.3,9127.03 6539.48,9112.81 6539.79,9098.55L6472.55,9087.3C6472.38,9074.23 6471.3,9061.18 6469.32,9048.26L6533.78,9026.1C6531.13,9012.09 6527.63,8998.25 6523.29,8984.66L6456.05,8995.86C6451.64,8983.55 6446.38,8971.56 6440.31,8959.98L6494.09,8918.09C6487.03,8905.7 6479.23,8893.75 6470.71,8882.31L6410.74,8914.73C6402.58,8904.52 6393.71,8894.89 6384.21,8885.91L6421.48,8828.82C6410.78,8819.39 6399.51,8810.62 6387.74,8802.57L6341.55,8852.7C6330.52,8845.7 6319,8839.47 6307.1,8834.06L6323.81,8767.97C6310.63,8762.52 6297.13,8757.89 6283.38,8754.09L6255.97,8816.51C6243.26,8813.47 6230.35,8811.31 6217.33,8810.06L6211.68,8742.12ZM6190.31,9004.95C6237.81,9004.95 6276.39,9043.52 6276.39,9091.03C6276.39,9138.54 6237.81,9177.11 6190.31,9177.11C6142.8,9177.11 6104.23,9138.54 6104.23,9091.03C6104.23,9043.52 6142.8,9004.95 6190.31,9004.95Z" style="fill:rgb(61,113,128);"/>
                            </g>
                            <g transform="matrix(-1.07188e-15,1,-1,-1.07188e-15,17257.8,-4107.91)">
                                <g transform="matrix(1.32729,0,0,1.32729,-3396.97,-2133.44)">
                                    <path d="M10512.4,6519.87L10594.8,6552.23C10597.9,6553.45 10600.3,6553.75 10601.8,6553.75C10603,6553.75 10605.5,6553.45 10609.1,6551.93C10634.7,6542.5 10655.1,6532.16 10655.1,6514.52L10655.1,6509.65L10673,6511.78C10673.6,6514.21 10673.9,6517.86 10673.9,6520.9C10673.9,6548.28 10647.8,6560.44 10607.6,6575.95L10512.4,6612.02L10512.4,6641.54C10512.4,6648.08 10517.7,6653.38 10524.2,6653.38C10558,6653.38 10654.7,6653.38 10688.5,6653.38C10695,6653.38 10700.3,6648.08 10700.3,6641.54C10700.3,6609.56 10700.3,6521.67 10700.3,6489.69C10700.3,6483.15 10695,6477.85 10688.5,6477.85C10654.7,6477.85 10558,6477.85 10524.2,6477.85C10517.7,6477.85 10512.4,6483.15 10512.4,6489.69L10512.4,6519.87Z" style="fill:rgb(28,79,93);"/>
                                </g>
                                <g transform="matrix(1.32729,0,0,1.32729,-3396.97,-2133.44)">
                                    <path d="M10512.4,6542.58L10512.4,6588.24L10547.1,6575.95C10556.8,6572.31 10566.2,6568.96 10577.8,6565.92L10577.8,6564.7C10568.4,6562.88 10557.4,6558.62 10548,6555.58L10512.4,6542.58Z" style="fill:rgb(28,79,93);"/>
                                </g>
                                <g transform="matrix(6.07153e-17,1,-1,6.07153e-17,18143.2,-4166.44)">
                                    <path d="M10686.8,7587.19L10716.9,7587.19L10734.2,7539.94C10738.2,7527.42 10743.9,7512.89 10746.3,7500.37L10747.9,7500.37C10751.9,7515.71 10756.4,7528.23 10761.2,7541.15L10777.5,7587.19L10809.1,7587.19L10761.2,7460.81C10740.6,7407.52 10724.5,7372.8 10688.1,7372.8C10684.1,7372.8 10679.3,7373.21 10676,7374.02L10673.2,7397.83L10679.7,7397.83C10703.1,7397.83 10716.8,7424.88 10729.3,7458.79C10731.3,7463.64 10731.7,7466.87 10731.7,7468.48C10731.7,7470.5 10731.3,7473.73 10729.7,7477.77L10686.8,7587.19Z" style="fill:rgb(219,255,255);"/>
                                </g>
                            </g>
                        </g>
                        <g transform="matrix(-1.07188e-15,1,-1,-1.07188e-15,17257.8,-4402.79)">
                            <g>
                                <g transform="matrix(1.32729,0,0,1.32729,-3396.97,-2133.44)">
                                    <path d="M10512.4,6519.87L10594.8,6552.23C10597.9,6553.45 10600.3,6553.75 10601.8,6553.75C10603,6553.75 10605.5,6553.45 10609.1,6551.93C10634.7,6542.5 10655.1,6532.16 10655.1,6514.52L10655.1,6509.65L10673,6511.78C10673.6,6514.21 10673.9,6517.86 10673.9,6520.9C10673.9,6548.28 10647.8,6560.44 10607.6,6575.95L10512.4,6612.02L10512.4,6641.54C10512.4,6648.08 10517.7,6653.38 10524.2,6653.38C10558,6653.38 10654.7,6653.38 10688.5,6653.38C10695,6653.38 10700.3,6648.08 10700.3,6641.54C10700.3,6609.56 10700.3,6521.67 10700.3,6489.69C10700.3,6483.15 10695,6477.85 10688.5,6477.85C10654.7,6477.85 10558,6477.85 10524.2,6477.85C10517.7,6477.85 10512.4,6483.15 10512.4,6489.69L10512.4,6519.87Z" style="fill:rgb(28,79,93);"/>
                                </g>
                                <g transform="matrix(1.32729,0,0,1.32729,-3396.97,-2133.44)">
                                    <path d="M10512.4,6542.58L10512.4,6588.24L10547.1,6575.95C10556.8,6572.31 10566.2,6568.96 10577.8,6565.92L10577.8,6564.7C10568.4,6562.88 10557.4,6558.62 10548,6555.58L10512.4,6542.58Z" style="fill:rgb(28,79,93);"/>
                                </g>
                                <g transform="matrix(6.07153e-17,1,-1,6.07153e-17,18143.2,-4166.44)">
                                    <path d="M10686.8,7587.19L10716.9,7587.19L10734.2,7539.94C10738.2,7527.42 10743.9,7512.89 10746.3,7500.37L10747.9,7500.37C10751.9,7515.71 10756.4,7528.23 10761.2,7541.15L10777.5,7587.19L10809.1,7587.19L10761.2,7460.81C10740.6,7407.52 10724.5,7372.8 10688.1,7372.8C10684.1,7372.8 10679.3,7373.21 10676,7374.02L10673.2,7397.83L10679.7,7397.83C10703.1,7397.83 10716.8,7424.88 10729.3,7458.79C10731.3,7463.64 10731.7,7466.87 10731.7,7468.48C10731.7,7470.5 10731.3,7473.73 10729.7,7477.77L10686.8,7587.19Z" style="fill:rgb(219,255,255);"/>
                                </g>
                            </g>
                        </g>
                        <g transform="matrix(0.248003,0.248191,-0.247198,0.250222,11386.2,3068.24)">
                            <path d="M6204.81,8741.77C6195.15,8741.37 6185.47,8741.37 6175.8,8741.77L6171.35,8800.12C6162.2,8800.71 6153.1,8801.74 6144.05,8803.19L6126.73,8747.3C6117.22,8749.06 6107.78,8751.21 6098.44,8753.76L6107.09,8811.63C6098.31,8814.25 6089.66,8817.27 6081.16,8820.7L6051.84,8770.07C6042.95,8773.9 6034.23,8778.1 6025.69,8782.65L6047,8837.15C6039.02,8841.66 6031.26,8846.53 6023.74,8851.77L5983.89,8808.93C5976.08,8814.64 5968.51,8820.67 5961.2,8827.01L5994.1,8875.41C5987.32,8881.57 5980.84,8888.05 5974.68,8894.83L5926.29,8861.93C5919.94,8869.24 5913.91,8876.81 5908.19,8884.61L5951.04,8924.47C5945.8,8931.99 5940.93,8939.75 5936.43,8947.73L5881.93,8926.42C5877.37,8934.96 5873.17,8943.68 5869.34,8952.57L5919.97,8981.89C5916.54,8990.39 5913.52,8999.04 5910.9,9007.82L5853.03,8999.17C5850.48,9008.51 5848.33,9017.94 5846.57,9027.46L5902.47,9044.78C5901.01,9053.83 5899.98,9062.93 5899.39,9072.08L5841.04,9076.53C5840.64,9086.19 5840.64,9095.87 5841.04,9105.54L5899.39,9109.99C5899.98,9119.13 5901.01,9128.24 5902.47,9137.28L5846.57,9154.61C5848.33,9164.12 5850.48,9173.56 5853.03,9182.9L5910.9,9174.25C5913.52,9183.03 5916.54,9191.68 5919.97,9200.18L5869.34,9229.5C5873.17,9238.39 5877.37,9247.11 5881.93,9255.64L5936.43,9234.34C5940.93,9242.32 5945.8,9250.08 5951.04,9257.59L5908.19,9297.45C5913.91,9305.26 5919.94,9312.83 5926.29,9320.14L5974.68,9287.24C5980.84,9294.01 5987.32,9300.5 5994.1,9306.66L5961.2,9355.05C5968.51,9361.39 5976.08,9367.43 5983.89,9373.14L6023.74,9330.3C6031.26,9335.53 6039.02,9340.41 6047,9344.91L6025.69,9399.41C6034.23,9403.97 6042.95,9408.17 6051.84,9412L6081.16,9361.36C6089.66,9364.79 6098.31,9367.82 6107.09,9370.44L6098.44,9428.31C6107.78,9430.85 6117.22,9433.01 6126.73,9434.77L6144.05,9378.87C6153.1,9380.33 6162.2,9381.35 6171.35,9381.95L6175.8,9440.3C6185.47,9440.7 6195.15,9440.7 6204.81,9440.3L6209.26,9381.95C6218.4,9381.35 6227.51,9380.33 6236.56,9378.87L6253.88,9434.77C6263.39,9433.01 6272.83,9430.85 6282.17,9428.31L6273.52,9370.44C6282.3,9367.82 6290.95,9364.79 6299.45,9361.36L6328.77,9412C6337.66,9408.17 6346.38,9403.97 6354.91,9399.41L6333.61,9344.91C6341.59,9340.41 6349.35,9335.53 6356.86,9330.3L6396.72,9373.14C6404.53,9367.43 6412.1,9361.39 6419.41,9355.05L6386.51,9306.66C6393.28,9300.5 6399.77,9294.01 6405.93,9287.24L6454.32,9320.14C6460.66,9312.83 6466.7,9305.26 6472.41,9297.45L6429.57,9257.59C6434.81,9250.08 6439.68,9242.32 6444.18,9234.34L6498.68,9255.64C6503.24,9247.11 6507.44,9238.39 6511.27,9229.5L6460.64,9200.18C6464.07,9191.68 6467.09,9183.03 6469.71,9174.25L6527.58,9182.9C6530.12,9173.56 6532.28,9164.12 6534.04,9154.61L6478.14,9137.28C6479.6,9128.24 6480.62,9119.13 6481.22,9109.99L6539.57,9105.54C6539.97,9095.87 6539.97,9086.19 6539.57,9076.53L6481.22,9072.08C6480.62,9062.93 6479.6,9053.83 6478.14,9044.78L6534.04,9027.46C6532.28,9017.94 6530.12,9008.51 6527.58,8999.17L6469.71,9007.82C6467.09,8999.04 6464.07,8990.39 6460.64,8981.89L6511.27,8952.57C6507.44,8943.68 6503.24,8934.96 6498.68,8926.42L6444.18,8947.73C6439.68,8939.75 6434.81,8931.99 6429.57,8924.47L6472.41,8884.61C6466.7,8876.81 6460.66,8869.24 6454.32,8861.93L6405.93,8894.83C6399.77,8888.05 6393.28,8881.57 6386.51,8875.41L6419.41,8827.01C6412.1,8820.67 6404.53,8814.64 6396.72,8808.93L6356.86,8851.77C6349.35,8846.53 6341.59,8841.66 6333.61,8837.15L6354.91,8782.65C6346.38,8778.1 6337.66,8773.9 6328.77,8770.07L6299.45,8820.7C6290.95,8817.27 6282.3,8814.25 6273.52,8811.63L6282.17,8753.76C6272.83,8751.21 6263.39,8749.06 6253.88,8747.3L6236.56,8803.19C6227.51,8801.74 6218.4,8800.71 6209.26,8800.12L6204.81,8741.77ZM6190.31,9009.8C6235.14,9009.8 6271.54,9046.2 6271.54,9091.03C6271.54,9135.87 6235.14,9172.27 6190.31,9172.27C6145.47,9172.27 6109.07,9135.87 6109.07,9091.03C6109.07,9046.2 6145.47,9009.8 6190.31,9009.8Z" style="fill:rgb(153,206,223);"/>
                        </g>
                    </g>
                </g>
            </g>
        </g>
    </g>
</svg>
